<svg width="32" height="32" viewBox="0 0 32 32" fill="none" xmlns="http://www.w3.org/2000/svg">
<path d="M15.9999 1.3335C13.0991 1.3335 10.2635 2.19368 7.85156 3.80527C5.43964 5.41687 3.55978 7.70749 2.44969 10.3875C1.33961 13.0675 1.04916 16.0164 1.61507 18.8615C2.18099 21.7065 3.57786 24.3199 5.62903 26.3711C7.6802 28.4222 10.2935 29.8191 13.1386 30.385C15.9837 30.9509 18.9326 30.6605 21.6126 29.5504C24.2926 28.4403 26.5832 26.5604 28.1948 24.1485C29.8064 21.7366 30.6666 18.901 30.6666 16.0002C30.662 12.1117 29.1153 8.38387 26.3658 5.63433C23.6162 2.88479 19.8884 1.33808 15.9999 1.3335ZM22.6666 17.3335H17.3333V22.6668C17.3333 23.0205 17.1928 23.3596 16.9427 23.6096C16.6927 23.8597 16.3535 24.0002 15.9999 24.0002C15.6463 24.0002 15.3072 23.8597 15.0571 23.6096C14.8071 23.3596 14.6666 23.0205 14.6666 22.6668V17.3335H9.33326C8.97964 17.3335 8.6405 17.193 8.39045 16.943C8.1404 16.6929 7.99993 16.3538 7.99993 16.0002C7.99993 15.6465 8.1404 15.3074 8.39045 15.0574C8.6405 14.8073 8.97964 14.6668 9.33326 14.6668H14.6666V9.3335C14.6666 8.97987 14.8071 8.64074 15.0571 8.39069C15.3072 8.14064 15.6463 8.00016 15.9999 8.00016C16.3535 8.00016 16.6927 8.14064 16.9427 8.39069C17.1928 8.64074 17.3333 8.97987 17.3333 9.3335V14.6668H22.6666C23.0202 14.6668 23.3594 14.8073 23.6094 15.0574C23.8595 15.3074 23.9999 15.6465 23.9999 16.0002C23.9999 16.3538 23.8595 16.6929 23.6094 16.943C23.3594 17.193 23.0202 17.3335 22.6666 17.3335Z" fill="#A3A3A3"/>
</svg>
