<svg width="48" height="49" viewBox="0 0 48 49" fill="none" xmlns="http://www.w3.org/2000/svg">
<g filter="url(#filter0_dd_31189_5140)">
<rect x="4" y="3" width="40" height="40" rx="3.9375" fill="#FEF2F2" shape-rendering="crispEdges"/>
<path d="M24 13.75C23.0215 13.75 22.1871 14.375 21.8779 15.2499C21.7398 15.6405 21.3113 15.8452 20.9208 15.7071C20.5303 15.5691 20.3256 15.1406 20.4636 14.7501C20.978 13.2946 22.3661 12.25 24 12.25C25.634 12.25 27.022 13.2946 27.5365 14.7501C27.6745 15.1406 27.4698 15.5691 27.0793 15.7071C26.6887 15.8452 26.2602 15.6405 26.1222 15.2499C25.813 14.375 24.9785 13.75 24 13.75Z" fill="#EF4444"/>
<path d="M14.75 17C14.75 16.5858 15.0858 16.25 15.5 16.25H32.5001C32.9143 16.25 33.2501 16.5858 33.2501 17C33.2501 17.4142 32.9143 17.75 32.5001 17.75H15.5C15.0858 17.75 14.75 17.4142 14.75 17Z" fill="#EF4444"/>
<path d="M17.9151 19.4501C17.8875 19.0368 17.5302 18.7241 17.1169 18.7517C16.7036 18.7792 16.3909 19.1366 16.4184 19.5499L16.8819 26.5017C16.9674 27.7844 17.0364 28.8205 17.1984 29.6336C17.3668 30.4789 17.6532 31.185 18.2448 31.7385C18.8364 32.2919 19.5599 32.5307 20.4146 32.6425C21.2366 32.7501 22.2751 32.75 23.5607 32.75H24.4395C25.7251 32.75 26.7635 32.7501 27.5856 32.6425C28.4402 32.5307 29.1638 32.2919 29.7554 31.7385C30.347 31.185 30.6334 30.4789 30.8018 29.6336C30.9637 28.8205 31.0328 27.7844 31.1183 26.5017L31.5818 19.5499C31.6093 19.1366 31.2966 18.7792 30.8833 18.7517C30.47 18.7241 30.1126 19.0368 30.0851 19.4501L29.6251 26.3493C29.5353 27.6971 29.4712 28.6349 29.3307 29.3405C29.1943 30.025 29.004 30.3873 28.7306 30.6431C28.4572 30.8989 28.083 31.0647 27.391 31.1552C26.6776 31.2485 25.7376 31.25 24.3868 31.25H23.6134C22.2626 31.25 21.3226 31.2485 20.6091 31.1552C19.9171 31.0647 19.543 30.8989 19.2696 30.6431C18.9962 30.3873 18.8058 30.025 18.6695 29.3405C18.5289 28.6349 18.4649 27.6971 18.375 26.3493L17.9151 19.4501Z" fill="#EF4444"/>
<path d="M21.4255 21.2538C21.8376 21.2126 22.2051 21.5133 22.2464 21.9254L22.7464 26.9254C22.7876 27.3376 22.4869 27.7051 22.0747 27.7463C21.6626 27.7875 21.295 27.4868 21.2538 27.0747L20.7538 22.0747C20.7126 21.6625 21.0133 21.295 21.4255 21.2538Z" fill="#EF4444"/>
<path d="M27.2464 22.0747C27.2876 21.6625 26.9869 21.295 26.5747 21.2538C26.1626 21.2126 25.795 21.5133 25.7538 21.9254L25.2538 26.9254C25.2126 27.3376 25.5133 27.7051 25.9255 27.7463C26.3376 27.7875 26.7052 27.4868 26.7464 27.0747L27.2464 22.0747Z" fill="#EF4444"/>
</g>
<defs>
<filter id="filter0_dd_31189_5140" x="0.0625" y="0.375" width="47.875" height="47.875" filterUnits="userSpaceOnUse" color-interpolation-filters="sRGB">
<feFlood flood-opacity="0" result="BackgroundImageFix"/>
<feColorMatrix in="SourceAlpha" type="matrix" values="0 0 0 0 0 0 0 0 0 0 0 0 0 0 0 0 0 0 127 0" result="hardAlpha"/>
<feOffset dy="0.65625"/>
<feGaussianBlur stdDeviation="0.65625"/>
<feComposite in2="hardAlpha" operator="out"/>
<feColorMatrix type="matrix" values="0 0 0 0 0 0 0 0 0 0 0 0 0 0 0 0 0 0 0.08 0"/>
<feBlend mode="normal" in2="BackgroundImageFix" result="effect1_dropShadow_31189_5140"/>
<feColorMatrix in="SourceAlpha" type="matrix" values="0 0 0 0 0 0 0 0 0 0 0 0 0 0 0 0 0 0 127 0" result="hardAlpha"/>
<feOffset dy="1.3125"/>
<feGaussianBlur stdDeviation="1.96875"/>
<feComposite in2="hardAlpha" operator="out"/>
<feColorMatrix type="matrix" values="0 0 0 0 0 0 0 0 0 0 0 0 0 0 0 0 0 0 0.04 0"/>
<feBlend mode="normal" in2="effect1_dropShadow_31189_5140" result="effect2_dropShadow_31189_5140"/>
<feBlend mode="normal" in="SourceGraphic" in2="effect2_dropShadow_31189_5140" result="shape"/>
</filter>
</defs>
</svg>
