<svg width="24" height="24" viewBox="0 0 24 24" fill="none" xmlns="http://www.w3.org/2000/svg">
<mask id="path-1-inside-1_359_4854" fill="white">
<path d="M15.53 22.4975H9.01C4.1 22.4975 2 20.3975 2 15.4875V15.3575C2 10.9175 3.75 8.77749 7.67 8.40749C8.07 8.37749 8.45 8.67749 8.49 9.08749C8.53 9.49749 8.23 9.86749 7.81 9.90749C4.67 10.1975 3.5 11.6775 3.5 15.3675V15.4975C3.5 19.5675 4.94 21.0075 9.01 21.0075H15.53C19.6 21.0075 21.04 19.5675 21.04 15.4975V15.3675C21.04 11.6575 19.85 10.1775 16.65 9.90749C16.24 9.86749 15.93 9.50749 15.97 9.09749C16.01 8.68749 16.36 8.37749 16.78 8.41749C20.76 8.75749 22.54 10.9075 22.54 15.3775V15.5075C22.54 20.3975 20.44 22.4975 15.53 22.4975Z"/>
</mask>
<path d="M15.53 22.4975H9.01C4.1 22.4975 2 20.3975 2 15.4875V15.3575C2 10.9175 3.75 8.77749 7.67 8.40749C8.07 8.37749 8.45 8.67749 8.49 9.08749C8.53 9.49749 8.23 9.86749 7.81 9.90749C4.67 10.1975 3.5 11.6775 3.5 15.3675V15.4975C3.5 19.5675 4.94 21.0075 9.01 21.0075H15.53C19.6 21.0075 21.04 19.5675 21.04 15.4975V15.3675C21.04 11.6575 19.85 10.1775 16.65 9.90749C16.24 9.86749 15.93 9.50749 15.97 9.09749C16.01 8.68749 16.36 8.37749 16.78 8.41749C20.76 8.75749 22.54 10.9075 22.54 15.3775V15.5075C22.54 20.3975 20.44 22.4975 15.53 22.4975Z" fill="white"/>
<path d="M7.67 8.40749L7.44563 5.41589L7.41684 5.41805L7.38809 5.42077L7.67 8.40749ZM7.81 9.90749L8.0859 12.8948L8.09443 12.894L7.81 9.90749ZM16.65 9.90749L16.3587 12.8933L16.3782 12.8952L16.3978 12.8969L16.65 9.90749ZM16.78 8.41749L16.4956 11.404L16.5101 11.4054L16.5246 11.4066L16.78 8.41749ZM22.54 15.5075L19.54 15.5075L22.54 15.5075ZM15.53 19.4975H9.01V25.4975H15.53V19.4975ZM9.01 19.4975C6.90014 19.4975 6.10738 19.0347 5.78507 18.7124C5.46276 18.3901 5 17.5974 5 15.4875H-1C-1 18.2876 -0.412756 20.9999 1.54243 22.9551C3.49762 24.9102 6.20986 25.4975 9.01 25.4975V19.4975ZM5 15.4875V15.3575H-1V15.4875H5ZM5 15.3575C5 13.4645 5.38391 12.6271 5.68903 12.2533C5.93983 11.9461 6.47813 11.5333 7.95191 11.3942L7.38809 5.42077C4.94187 5.65166 2.64517 6.49392 1.04097 8.45918C-0.508907 10.3579 -1 12.8105 -1 15.3575H5ZM7.89437 11.3991C6.74986 11.4849 5.63034 10.672 5.50418 9.37879L11.4758 8.79619C11.2697 6.68297 9.39014 5.27006 7.44563 5.41589L7.89437 11.3991ZM5.50418 9.37879C5.38324 8.13917 6.29141 7.03855 7.52557 6.92101L8.09443 12.894C10.1686 12.6964 11.6768 10.8558 11.4758 8.79619L5.50418 9.37879ZM7.5341 6.92021C5.58127 7.10056 3.53611 7.71377 2.12303 9.50334C0.79776 11.1817 0.5 13.3255 0.5 15.3675H6.5C6.5 13.7195 6.78724 13.2783 6.83197 13.2216C6.83358 13.2196 6.85469 13.1813 6.99759 13.1198C7.17042 13.0454 7.50038 12.9489 8.0859 12.8948L7.5341 6.92021ZM0.5 15.3675V15.4975H6.5V15.3675H0.5ZM0.5 15.4975C0.5 17.7403 0.864916 20.1575 2.60743 21.9001C4.34994 23.6426 6.7672 24.0075 9.01 24.0075V18.0075C8.14715 18.0075 7.59183 17.9285 7.24296 17.8306C7.07726 17.7841 6.97868 17.7388 6.92528 17.7094C6.87525 17.6819 6.85628 17.6636 6.85007 17.6574C6.84386 17.6512 6.82563 17.6322 6.79808 17.5822C6.76867 17.5288 6.72343 17.4302 6.67692 17.2645C6.57896 16.9157 6.5 16.3603 6.5 15.4975H0.5ZM9.01 24.0075H15.53V18.0075H9.01V24.0075ZM15.53 24.0075C17.7728 24.0075 20.1901 23.6426 21.9326 21.9001C23.6751 20.1575 24.04 17.7403 24.04 15.4975H18.04C18.04 16.3603 17.961 16.9157 17.8631 17.2645C17.8166 17.4302 17.7713 17.5288 17.7419 17.5822C17.7144 17.6322 17.6961 17.6512 17.6899 17.6574C17.6837 17.6636 17.6647 17.6819 17.6147 17.7094C17.5613 17.7388 17.4627 17.7841 17.297 17.8306C16.9482 17.9285 16.3929 18.0075 15.53 18.0075V24.0075ZM24.04 15.4975V15.3675H18.04V15.4975H24.04ZM24.04 15.3675C24.04 13.3131 23.7368 11.1515 22.383 9.46766C20.9455 7.67979 18.8734 7.08443 16.9022 6.91811L16.3978 12.8969C17.0012 12.9478 17.3455 13.0441 17.5291 13.1208C17.6827 13.185 17.7063 13.2264 17.707 13.2273C17.7482 13.2785 18.04 13.7119 18.04 15.3675H24.04ZM16.9413 6.92167C18.1003 7.03474 19.0844 8.07088 18.9558 9.38879L12.9842 8.80619C12.7756 10.9441 14.3797 12.7002 16.3587 12.8933L16.9413 6.92167ZM18.9558 9.38879C18.8447 10.5276 17.8182 11.5299 16.4956 11.404L17.0644 5.43101C14.9018 5.22505 13.1753 6.84738 12.9842 8.80619L18.9558 9.38879ZM16.5246 11.4066C18.032 11.5354 18.5855 11.9524 18.8414 12.2615C19.1501 12.6345 19.54 13.4732 19.54 15.3775H25.54C25.54 12.8118 25.0399 10.3405 23.4636 8.43594C21.8345 6.46759 19.508 5.63961 17.0354 5.42838L16.5246 11.4066ZM19.54 15.3775V15.5075H25.54V15.3775H19.54ZM19.54 15.5075C19.54 17.6044 19.0786 18.392 18.7573 18.7126C18.4344 19.0348 17.6398 19.4975 15.53 19.4975V25.4975C18.3302 25.4975 21.0406 24.9102 22.9952 22.9599C24.9514 21.008 25.54 18.3006 25.54 15.5075H19.54Z" fill="white" mask="url(#path-1-inside-1_359_4854)"/>
<mask id="path-3-inside-2_359_4854" fill="white">
<path d="M12.27 15.9975C11.86 15.9975 11.52 15.6575 11.52 15.2475V3.86749C11.52 3.45749 11.86 3.11749 12.27 3.11749C12.68 3.11749 13.02 3.45749 13.02 3.86749V15.2475C13.02 15.6575 12.68 15.9975 12.27 15.9975Z"/>
</mask>
<path d="M12.27 15.9975C11.86 15.9975 11.52 15.6575 11.52 15.2475V3.86749C11.52 3.45749 11.86 3.11749 12.27 3.11749C12.68 3.11749 13.02 3.45749 13.02 3.86749V15.2475C13.02 15.6575 12.68 15.9975 12.27 15.9975Z" fill="white"/>
<path d="M12.27 12.9975C13.5169 12.9975 14.52 14.0006 14.52 15.2475H8.52002C8.52002 17.3143 10.2032 18.9975 12.27 18.9975V12.9975ZM14.52 15.2475V3.86749H8.52002V15.2475H14.52ZM14.52 3.86749C14.52 5.11435 13.5169 6.11749 12.27 6.11749V0.117493C10.2032 0.117493 8.52002 1.80064 8.52002 3.86749H14.52ZM12.27 6.11749C11.0232 6.11749 10.02 5.11435 10.02 3.86749H16.02C16.02 1.80064 14.3369 0.117493 12.27 0.117493V6.11749ZM10.02 3.86749V15.2475H16.02V3.86749H10.02ZM10.02 15.2475C10.02 14.0006 11.0232 12.9975 12.27 12.9975V18.9975C14.3369 18.9975 16.02 17.3143 16.02 15.2475H10.02Z" fill="white" mask="url(#path-3-inside-2_359_4854)"/>
<mask id="path-5-inside-3_359_4854" fill="white">
<path d="M15.62 6.8475C15.43 6.8475 15.24 6.7775 15.09 6.6275L12.27 3.8075L9.44999 6.6275C9.15999 6.9175 8.67999 6.9175 8.38999 6.6275C8.09999 6.3375 8.09999 5.8575 8.38999 5.5675L11.74 2.2175C12.03 1.9275 12.51 1.9275 12.8 2.2175L16.15 5.5675C16.44 5.8575 16.44 6.3375 16.15 6.6275C16.01 6.7775 15.81 6.8475 15.62 6.8475Z"/>
</mask>
<path d="M15.62 6.8475C15.43 6.8475 15.24 6.7775 15.09 6.6275L12.27 3.8075L9.44999 6.6275C9.15999 6.9175 8.67999 6.9175 8.38999 6.6275C8.09999 6.3375 8.09999 5.8575 8.38999 5.5675L11.74 2.2175C12.03 1.9275 12.51 1.9275 12.8 2.2175L16.15 5.5675C16.44 5.8575 16.44 6.3375 16.15 6.6275C16.01 6.7775 15.81 6.8475 15.62 6.8475Z" fill="white"/>
<path d="M15.09 6.6275L12.9687 8.74882L12.9687 8.74882L15.09 6.6275ZM12.27 3.8075L14.3913 1.68618L12.27 -0.435141L10.1487 1.68618L12.27 3.8075ZM9.44999 6.6275L11.5713 8.74882L11.5713 8.74882L9.44999 6.6275ZM8.38999 5.5675L6.26867 3.44618L6.26867 3.44618L8.38999 5.5675ZM11.74 2.2175L13.8613 4.33882L13.8613 4.33882L11.74 2.2175ZM12.8 2.2175L10.6787 4.33882L10.6787 4.33882L12.8 2.2175ZM16.15 5.5675L18.2713 3.44618L18.2713 3.44618L16.15 5.5675ZM16.15 6.6275L14.0287 4.50618L13.9921 4.54274L13.9568 4.58055L16.15 6.6275ZM15.62 3.8475C16.1827 3.8475 16.769 4.06392 17.2113 4.50618L12.9687 8.74882C13.7109 9.49108 14.6773 9.8475 15.62 9.8475V3.8475ZM17.2113 4.50618L14.3913 1.68618L10.1487 5.92882L12.9687 8.74882L17.2113 4.50618ZM10.1487 1.68618L7.32867 4.50618L11.5713 8.74882L14.3913 5.92882L10.1487 1.68618ZM7.32867 4.50618C8.21024 3.62461 9.62973 3.62461 10.5113 4.50618L6.26867 8.74882C7.73024 10.2104 10.1097 10.2104 11.5713 8.74882L7.32867 4.50618ZM10.5113 4.50618C11.3929 5.38775 11.3929 6.80725 10.5113 7.68882L6.26867 3.44618C4.80709 4.90775 4.80709 7.28725 6.26867 8.74882L10.5113 4.50618ZM10.5113 7.68882L13.8613 4.33882L9.61867 0.0961796L6.26867 3.44618L10.5113 7.68882ZM13.8613 4.33882C12.9797 5.22039 11.5602 5.22039 10.6787 4.33882L14.9213 0.0961797C13.4597 -1.36539 11.0802 -1.36539 9.61867 0.0961797L13.8613 4.33882ZM10.6787 4.33882L14.0287 7.68882L18.2713 3.44618L14.9213 0.0961796L10.6787 4.33882ZM14.0287 7.68882C13.1471 6.80725 13.1471 5.38775 14.0287 4.50618L18.2713 8.74882C19.7329 7.28725 19.7329 4.90775 18.2713 3.44618L14.0287 7.68882ZM13.9568 4.58055C14.4753 4.025 15.1221 3.8475 15.62 3.8475V9.8475C16.4978 9.8475 17.5446 9.53 18.3432 8.67445L13.9568 4.58055Z" fill="white" mask="url(#path-5-inside-3_359_4854)"/>
</svg>
