<svg width="20" height="21" viewBox="0 0 20 21" fill="none" xmlns="http://www.w3.org/2000/svg">
<path d="M13.125 11.6577C13.125 12.2758 12.9417 12.88 12.5983 13.3939C12.255 13.9078 11.7669 14.3083 11.1959 14.5448C10.6249 14.7814 9.99653 14.8432 9.39034 14.7227C8.78415 14.6021 8.22733 14.3045 7.79029 13.8674C7.35325 13.4304 7.05563 12.8736 6.93505 12.2674C6.81447 11.6612 6.87635 11.0328 7.11288 10.4618C7.3494 9.89081 7.74994 9.40275 8.26384 9.05937C8.77775 8.71599 9.38193 8.53271 10 8.53271C10.8288 8.53271 11.6237 8.86196 12.2097 9.44801C12.7958 10.0341 13.125 10.8289 13.125 11.6577ZM5 4.78271C4.50555 4.78271 4.0222 4.92934 3.61108 5.20404C3.19995 5.47874 2.87952 5.86919 2.6903 6.32601C2.50108 6.78282 2.45157 7.28549 2.54804 7.77044C2.6445 8.25539 2.8826 8.70085 3.23223 9.05048C3.58187 9.40011 4.02732 9.63822 4.51228 9.73468C4.99723 9.83114 5.49989 9.78163 5.95671 9.59241C6.41353 9.40319 6.80397 9.08276 7.07868 8.67164C7.35338 8.26052 7.5 7.77717 7.5 7.28271C7.5 6.61967 7.23661 5.98379 6.76777 5.51495C6.29893 5.04611 5.66304 4.78271 5 4.78271ZM15 4.78271C14.5055 4.78271 14.0222 4.92934 13.6111 5.20404C13.2 5.47874 12.8795 5.86919 12.6903 6.32601C12.5011 6.78282 12.4516 7.28549 12.548 7.77044C12.6445 8.25539 12.8826 8.70085 13.2322 9.05048C13.5819 9.40011 14.0273 9.63822 14.5123 9.73468C14.9972 9.83114 15.4999 9.78163 15.9567 9.59241C16.4135 9.40319 16.804 9.08276 17.0787 8.67164C17.3534 8.26052 17.5 7.77717 17.5 7.28271C17.5 6.61967 17.2366 5.98379 16.7678 5.51495C16.2989 5.04611 15.663 4.78271 15 4.78271Z" fill="black" fill-opacity="0.04"/>
<path d="M19.1252 12.1575C19.0596 12.2068 18.9849 12.2426 18.9053 12.263C18.8258 12.2833 18.7431 12.2879 18.6618 12.2762C18.5806 12.2646 18.5024 12.2371 18.4318 12.1953C18.3612 12.1535 18.2995 12.0982 18.2502 12.0325C17.8735 11.5262 17.3832 11.1153 16.8187 10.8331C16.2542 10.5508 15.6313 10.4051 15.0002 10.4075C14.8345 10.4075 14.6755 10.3417 14.5583 10.2245C14.4411 10.1073 14.3752 9.94829 14.3752 9.78253C14.3752 9.61677 14.4411 9.4578 14.5583 9.34059C14.6755 9.22338 14.8345 9.15753 15.0002 9.15753C15.3509 9.1575 15.6946 9.05912 15.9921 8.87358C16.2897 8.68803 16.5293 8.42275 16.6836 8.10787C16.838 7.79299 16.901 7.44114 16.8654 7.09226C16.8298 6.74339 16.6971 6.41149 16.4823 6.13427C16.2676 5.85704 15.9794 5.64559 15.6505 5.52395C15.3216 5.4023 14.9651 5.37534 14.6217 5.44611C14.2782 5.51688 13.9615 5.68256 13.7074 5.92432C13.4534 6.16608 13.2723 6.47423 13.1846 6.81378C13.1641 6.89329 13.1281 6.96798 13.0787 7.03359C13.0293 7.09919 12.9675 7.15443 12.8968 7.19615C12.8261 7.23786 12.7478 7.26523 12.6665 7.2767C12.5852 7.28817 12.5024 7.28352 12.4229 7.263C12.3434 7.24248 12.2687 7.2065 12.2031 7.15711C12.1375 7.10773 12.0822 7.04591 12.0405 6.97517C11.9988 6.90444 11.9714 6.82619 11.96 6.74488C11.9485 6.66356 11.9532 6.58079 11.9737 6.50128C12.0954 6.03043 12.3253 5.59448 12.6451 5.22812C12.9649 4.86175 13.3658 4.57509 13.8159 4.39093C14.266 4.20677 14.7529 4.1302 15.2378 4.16732C15.7227 4.20443 16.1922 4.35421 16.609 4.60473C17.0259 4.85524 17.3785 5.19958 17.6388 5.61036C17.8991 6.02113 18.06 6.48699 18.1086 6.97087C18.1572 7.45475 18.0922 7.9433 17.9188 8.39764C17.7454 8.85199 17.4683 9.25958 17.1096 9.588C17.9595 9.95596 18.6982 10.5399 19.2526 11.2817C19.3018 11.3476 19.3376 11.4225 19.3578 11.5021C19.3781 11.5818 19.3824 11.6647 19.3706 11.7461C19.3588 11.8274 19.331 11.9056 19.2889 11.9762C19.2468 12.0468 19.1912 12.1085 19.1252 12.1575ZM14.9159 16.97C14.9595 17.0412 14.9884 17.1203 15.001 17.2029C15.0135 17.2854 15.0094 17.3696 14.9889 17.4505C14.9684 17.5314 14.9319 17.6073 14.8815 17.6739C14.8311 17.7404 14.768 17.7962 14.6957 17.838C14.6234 17.8797 14.5435 17.9066 14.4607 17.9169C14.3779 17.9273 14.2938 17.921 14.2135 17.8983C14.1332 17.8757 14.0582 17.8372 13.993 17.7851C13.9278 17.733 13.8737 17.6684 13.8338 17.595C13.4401 16.9285 12.8794 16.3762 12.207 15.9925C11.5347 15.6088 10.774 15.407 9.99985 15.407C9.22573 15.407 8.46499 15.6088 7.79266 15.9925C7.12033 16.3762 6.55962 16.9285 6.16586 17.595C6.12679 17.6697 6.07301 17.7357 6.00777 17.7891C5.94252 17.8425 5.86715 17.8821 5.7862 17.9056C5.70524 17.9291 5.62037 17.9359 5.53669 17.9258C5.45302 17.9156 5.37226 17.8886 5.29928 17.8464C5.2263 17.8042 5.16261 17.7477 5.11204 17.6803C5.06147 17.6129 5.02506 17.5359 5.005 17.454C4.98495 17.3721 4.98166 17.2871 4.99535 17.2039C5.00903 17.1207 5.03939 17.0412 5.08461 16.97C5.69055 15.9289 6.61445 15.1096 7.72055 14.6325C7.09815 14.156 6.64073 13.4964 6.41258 12.7465C6.18443 11.9965 6.19703 11.1939 6.44861 10.4515C6.70018 9.70911 7.17808 9.06419 7.81513 8.60743C8.45219 8.15067 9.21636 7.90503 10.0002 7.90503C10.7841 7.90503 11.5483 8.15067 12.1853 8.60743C12.8224 9.06419 13.3003 9.70911 13.5519 10.4515C13.8034 11.1939 13.816 11.9965 13.5879 12.7465C13.3597 13.4964 12.9023 14.156 12.2799 14.6325C13.386 15.1096 14.3099 15.9289 14.9159 16.97ZM10.0002 14.1575C10.4947 14.1575 10.978 14.0109 11.3892 13.7362C11.8003 13.4615 12.1207 13.0711 12.3099 12.6142C12.4992 12.1574 12.5487 11.6548 12.4522 11.1698C12.3557 10.6849 12.1176 10.2394 11.768 9.88976C11.4184 9.54013 10.9729 9.30203 10.488 9.20557C10.003 9.1091 9.50034 9.15861 9.04353 9.34783C8.58671 9.53705 8.19627 9.85748 7.92156 10.2686C7.64686 10.6797 7.50024 11.1631 7.50024 11.6575C7.50024 12.3206 7.76363 12.9565 8.23247 13.4253C8.70131 13.8941 9.3372 14.1575 10.0002 14.1575ZM5.62524 9.78253C5.62524 9.61677 5.55939 9.4578 5.44218 9.34059C5.32497 9.22338 5.166 9.15753 5.00024 9.15753C4.64956 9.1575 4.30591 9.05912 4.00834 8.87358C3.71076 8.68803 3.47119 8.42275 3.31682 8.10787C3.16246 7.79299 3.09949 7.44114 3.13508 7.09226C3.17066 6.74339 3.30337 6.41149 3.51813 6.13427C3.73289 5.85704 4.02109 5.64559 4.35 5.52395C4.67891 5.4023 5.03534 5.37534 5.3788 5.44611C5.72227 5.51688 6.039 5.68256 6.29303 5.92432C6.54706 6.16608 6.72819 6.47423 6.81586 6.81378C6.8573 6.97436 6.96083 7.1119 7.10368 7.19615C7.24653 7.28039 7.417 7.30444 7.57758 7.263C7.73816 7.22156 7.8757 7.11802 7.95995 6.97517C8.04419 6.83232 8.06824 6.66186 8.0268 6.50128C7.90511 6.03043 7.67522 5.59448 7.3554 5.22812C7.03558 4.86175 6.63468 4.57509 6.18458 4.39093C5.73447 4.20677 5.2476 4.1302 4.7627 4.16732C4.2778 4.20443 3.80826 4.35421 3.39143 4.60473C2.9746 4.85524 2.62199 5.19958 2.36166 5.61036C2.10133 6.02113 1.94046 6.48699 1.89185 6.97087C1.84325 7.45475 1.90825 7.9433 2.08168 8.39764C2.25511 8.85199 2.53219 9.25958 2.89086 9.588C2.04186 9.95631 1.30392 10.5402 0.750237 11.2817C0.650677 11.4144 0.607874 11.5811 0.631242 11.7453C0.654611 11.9094 0.742238 12.0576 0.874846 12.1571C1.00745 12.2567 1.17418 12.2995 1.33835 12.2761C1.50252 12.2528 1.65068 12.1651 1.75024 12.0325C2.12695 11.5262 2.61728 11.1153 3.18177 10.8331C3.74625 10.5508 4.36912 10.4051 5.00024 10.4075C5.166 10.4075 5.32497 10.3417 5.44218 10.2245C5.55939 10.1073 5.62524 9.94829 5.62524 9.78253Z" fill="black"/>
</svg>
