<svg width="20" height="21" viewBox="0 0 20 21" fill="none" xmlns="http://www.w3.org/2000/svg">
<path d="M17.5 4.78247V6.65747H2.5V4.78247C2.5 4.61671 2.56585 4.45774 2.68306 4.34053C2.80027 4.22332 2.95924 4.15747 3.125 4.15747H16.875C17.0408 4.15747 17.1997 4.22332 17.3169 4.34053C17.4342 4.45774 17.5 4.61671 17.5 4.78247Z" fill="black" fill-opacity="0.04"/>
<path d="M16.875 3.53247H3.125C2.79348 3.53247 2.47554 3.66417 2.24112 3.89859C2.0067 4.13301 1.875 4.45095 1.875 4.78247V16.0325C1.875 16.364 2.0067 16.6819 2.24112 16.9164C2.47554 17.1508 2.79348 17.2825 3.125 17.2825H16.875C17.2065 17.2825 17.5245 17.1508 17.7589 16.9164C17.9933 16.6819 18.125 16.364 18.125 16.0325V4.78247C18.125 4.45095 17.9933 4.13301 17.7589 3.89859C17.5245 3.66417 17.2065 3.53247 16.875 3.53247ZM16.875 4.78247V6.03247H3.125V4.78247H16.875ZM16.875 16.0325H3.125V7.28247H16.875V16.0325ZM13.75 9.15747C13.75 10.152 13.3549 11.1059 12.6517 11.8091C11.9484 12.5124 10.9946 12.9075 10 12.9075C9.00544 12.9075 8.05161 12.5124 7.34835 11.8091C6.64509 11.1059 6.25 10.152 6.25 9.15747C6.25 8.99171 6.31585 8.83274 6.43306 8.71553C6.55027 8.59832 6.70924 8.53247 6.875 8.53247C7.04076 8.53247 7.19973 8.59832 7.31694 8.71553C7.43415 8.83274 7.5 8.99171 7.5 9.15747C7.5 9.82051 7.76339 10.4564 8.23223 10.9252C8.70107 11.3941 9.33696 11.6575 10 11.6575C10.663 11.6575 11.2989 11.3941 11.7678 10.9252C12.2366 10.4564 12.5 9.82051 12.5 9.15747C12.5 8.99171 12.5658 8.83274 12.6831 8.71553C12.8003 8.59832 12.9592 8.53247 13.125 8.53247C13.2908 8.53247 13.4497 8.59832 13.5669 8.71553C13.6842 8.83274 13.75 8.99171 13.75 9.15747Z" fill="black"/>
</svg>
