<svg width="20" height="21" viewBox="0 0 20 21" fill="none" xmlns="http://www.w3.org/2000/svg">
<path d="M18.125 12.2826V17.4389C18.125 17.5632 18.0756 17.6824 17.9877 17.7703C17.8998 17.8582 17.7806 17.9076 17.6562 17.9076H12.5C11.3365 17.9079 10.2016 17.5474 9.25158 16.8758C8.30154 16.2042 7.58313 15.2545 7.19531 14.1576H7.5C8.99184 14.1576 10.4226 13.565 11.4775 12.5101C12.5324 11.4552 13.125 10.0245 13.125 8.53262C13.1254 7.89723 13.0179 7.26638 12.807 6.66699C14.2434 6.74551 15.5951 7.37135 16.5842 8.41585C17.5734 9.46034 18.1247 10.8441 18.125 12.2826Z" fill="black" fill-opacity="0.04"/>
<path d="M13.2477 6.07872C12.682 4.75446 11.6765 3.66615 10.401 2.99776C9.12553 2.32937 7.65839 2.12192 6.2476 2.41047C4.83682 2.69902 3.56895 3.46587 2.65834 4.58138C1.74773 5.6969 1.25025 7.09263 1.25 8.53262V13.6889C1.25 13.979 1.36523 14.2572 1.57035 14.4623C1.77547 14.6674 2.05367 14.7826 2.34375 14.7826H6.77109C7.25882 15.8964 8.06026 16.8441 9.07758 17.51C10.0949 18.1759 11.2841 18.5313 12.5 18.5326H17.6562C17.9463 18.5326 18.2245 18.4174 18.4296 18.2123C18.6348 18.0072 18.75 17.729 18.75 17.4389V12.2826C18.7497 10.7547 18.1897 9.27982 17.1759 8.13672C16.1621 6.99362 14.7646 6.26149 13.2477 6.07872ZM2.5 8.53262C2.5 7.54372 2.79324 6.57702 3.34265 5.75477C3.89206 4.93253 4.67295 4.29166 5.58658 3.91323C6.50021 3.53479 7.50555 3.43577 8.47545 3.6287C9.44536 3.82162 10.3363 4.29783 11.0355 4.99709C11.7348 5.69635 12.211 6.58727 12.4039 7.55717C12.5969 8.52708 12.4978 9.53241 12.1194 10.446C11.741 11.3597 11.1001 12.1406 10.2779 12.69C9.4556 13.2394 8.48891 13.5326 7.5 13.5326H2.5V8.53262ZM17.5 17.2826H12.5C11.6159 17.2816 10.7477 17.0467 9.98375 16.6017C9.21976 16.1567 8.5871 15.5176 8.15 14.749C9.00603 14.6602 9.83445 14.3954 10.5833 13.9712C11.3321 13.547 11.9852 12.9726 12.5015 12.2841C13.0178 11.5955 13.3862 10.8077 13.5836 9.96997C13.7809 9.13229 13.803 8.26284 13.6484 7.41622C14.7447 7.67494 15.7216 8.29627 16.4206 9.17952C17.1197 10.0628 17.5 11.1562 17.5 12.2826V17.2826Z" fill="black"/>
</svg>
