<svg width="16" height="17" viewBox="0 0 16 17" fill="none" xmlns="http://www.w3.org/2000/svg">
<path d="M6.25009 7.68435C6.32612 7.64045 6.38925 7.57732 6.43313 7.50128C6.47702 7.42525 6.50011 7.33901 6.50009 7.25122V2.75122C6.49965 2.6715 6.48015 2.59305 6.44322 2.5224C6.40629 2.45175 6.35301 2.39096 6.28781 2.34509C6.22261 2.29922 6.14739 2.2696 6.06842 2.25871C5.98945 2.24782 5.90902 2.25596 5.83384 2.28247C4.37445 2.79898 3.14717 3.81912 2.3726 5.15951C1.59804 6.49991 1.327 8.07263 1.60822 9.59497C1.62279 9.67369 1.65606 9.74776 1.70522 9.81096C1.75438 9.87415 1.818 9.92461 1.89072 9.9581C1.95625 9.98874 2.02775 10.0045 2.10009 10.0043C2.18785 10.0044 2.27407 9.98132 2.35009 9.93747L6.25009 7.68435ZM5.50009 3.50872V6.96247L2.50759 8.68935C2.50009 8.59497 2.50009 8.49997 2.50009 8.40747C2.50098 7.39395 2.78152 6.40032 3.31084 5.536C3.84015 4.67167 4.59771 3.97017 5.50009 3.50872ZM14.5001 8.40747C14.5006 9.83442 14.0315 11.2219 13.1652 12.3558C12.2989 13.4897 11.0836 14.307 9.70668 14.6817C8.32979 15.0563 6.86787 14.9675 5.54648 14.4288C4.2251 13.8902 3.11768 12.9317 2.39509 11.7012C2.36141 11.6444 2.33932 11.5814 2.33011 11.516C2.3209 11.4506 2.32474 11.384 2.34142 11.3201C2.3581 11.2561 2.38728 11.1962 2.42728 11.1436C2.46728 11.091 2.51731 11.0469 2.57447 11.0137L7.50009 8.14685V2.40747C7.50009 2.27486 7.55277 2.14769 7.64654 2.05392C7.74031 1.96015 7.86748 1.90747 8.00009 1.90747C9.13439 1.90805 10.2488 2.2053 11.2327 2.76972C12.2166 3.33414 13.0358 4.1461 13.6088 5.12497C13.6157 5.13497 13.622 5.14497 13.6282 5.1556C13.6345 5.16622 13.6407 5.17872 13.6463 5.18997C14.2072 6.16945 14.5015 7.2788 14.5001 8.40747Z" fill="black"/>
</svg>
