<svg width="364" height="44" viewBox="0 0 364 44" fill="none" xmlns="http://www.w3.org/2000/svg">
<g clip-path="url(#clip0_29418_5398)">
<path d="M0.000850677 13.8462L8.42781 22.2743L10.8716 24.7202L17.4992 31.3478L18.4148 32.2601L20.1603 34.0068L22.1749 31.9912L22.8182 31.3478L38.0583 16.1089V27.2551L41.8184 23.494V7.02868L38.0583 10.7888L20.1603 28.6867L18.4148 26.9412L13.5327 22.0591L11.0868 19.6131L5.31656 13.8462L13.0925 6.07028L15.4023 3.76044H26.9416L30.7028 -0.000732422H13.8467L10.0866 3.76044L7.7757 6.07028L2.6587 11.1884L0.000850677 13.8462Z" fill="white"/>
<path d="M47.6514 6.51563L54.9828 13.847L41.8176 27.0111L30.1487 38.6799L28.3911 36.9223L25.1382 33.6716L22.4793 36.3305L25.7332 39.5801L27.4909 41.3389L30.1487 44L38.0575 36.0912L41.8176 32.3311L60.3018 13.847L57.6406 11.1891L55.8819 9.43038L52.5269 6.07101L50.3093 3.85778L50.216 3.76117L46.4548 0H35.5929L31.8317 3.76117L29.5208 6.07101L22.1741 13.4177V6.07101H18.414V22.5012L34.843 6.07101L37.154 3.76117H44.8992L47.2101 6.07101L47.6514 6.51563Z" fill="white"/>
</g>
<g clip-path="url(#clip1_29418_5398)">
<path d="M80.5229 32.7441V11.2256H83.5663L88.5463 26.7804V11.2256H90.6696V32.7441H88.1774L82.6748 15.3448V32.7441H80.5229Z" fill="white"/>
<path d="M103.949 32.7441H101.735L105.855 11.2256H109.328L113.448 32.7441H111.05L110.22 28.4096H104.781L103.949 32.7441ZM109.877 26.35L107.449 13.9308L105.082 26.35H109.877Z" fill="white"/>
<path d="M127.679 13.4082H123.714V11.2256H134.034V13.4082H130.077V32.7441H127.679V13.4082Z" fill="white"/>
<path d="M149.72 30.7767C150.562 30.7767 151.187 30.5102 151.595 29.9774C152.003 29.4446 152.208 28.6761 152.21 27.6719V11.2256H154.454V27.5489C154.454 29.2513 154.054 30.5834 153.255 31.5452C152.456 32.5069 151.247 32.9885 149.628 32.99C148.029 32.99 146.83 32.5033 146.031 31.5298C145.232 30.5564 144.832 29.2294 144.832 27.5489V11.2256H147.199V27.6719C147.199 29.7432 148.039 30.7781 149.72 30.7767Z" fill="white"/>
<path d="M174.483 12.4552C175.251 13.2764 175.635 14.5061 175.635 16.1441V17.9007C175.635 19.0908 175.42 20.054 174.99 20.7903C174.538 21.5458 173.81 22.0967 172.961 22.3274C173.824 22.5552 174.564 23.1126 175.02 23.8798C175.451 24.6278 175.666 25.6064 175.666 26.8155V30.1553C175.661 30.6533 175.687 31.1512 175.743 31.6462C175.787 32.0318 175.908 32.4049 176.096 32.7441H173.668C173.524 32.4145 173.421 32.0687 173.36 31.7142C173.288 31.1898 173.257 30.6604 173.268 30.1311V26.7496C173.268 25.5786 173.007 24.7537 172.484 24.275C171.962 23.7963 171.178 23.5555 170.133 23.5526H168.442V32.7441H166.042V11.2256H170.838C172.499 11.2256 173.714 11.6355 174.483 12.4552ZM172.506 20.7245C173.008 20.2941 173.259 19.5256 173.259 18.4189V16.3593C173.259 15.3756 173.065 14.6378 172.675 14.146C172.286 13.6541 171.651 13.4082 170.769 13.4082H168.442V21.3722H170.225C171.251 21.3722 172.014 21.1563 172.515 20.7245H172.506Z" fill="white"/>
<path d="M195.025 22.909H189.775V30.5634H196.231V32.746H187.377V11.2275H196.231V13.4101H189.775V20.7572H195.025V22.909Z" fill="white"/>
<path d="M230.378 12.624C231.187 13.558 231.592 14.8754 231.592 16.5764V27.4279C231.592 29.1098 231.187 30.4163 230.378 31.3473C229.568 32.2783 228.344 32.7446 226.704 32.746H221.654V11.2275H226.704C228.339 11.2261 229.564 11.6916 230.378 12.624ZM229.216 27.5201V16.4535C229.216 14.4246 228.355 13.4101 226.634 13.4101H224.052V30.5634H226.665C228.367 30.562 229.217 29.5475 229.216 27.5201Z" fill="white"/>
<path d="M245.448 32.7441H243.05V11.2256H245.448V32.7441Z" fill="white"/>
<path d="M258.728 32.7441H256.508L260.627 11.2256H264.101L268.22 32.7441H265.822L264.992 28.4096H259.551L258.728 32.7441ZM264.656 26.35L262.228 13.9308L259.861 26.35H264.656Z" fill="white"/>
<path d="M284.948 32.7136L281.382 15.5866V32.7399H279.292V11.2214H282.636L286.171 28.4055L289.584 11.2214H292.934V32.7399H290.659V15.4439L287.247 32.7136H284.948Z" fill="white"/>
<path d="M321.007 32.7441H318.609V11.2256H321.007V32.7441Z" fill="white"/>
<path d="M332.655 32.7441V11.2256H335.701L340.679 26.7804V11.2256H342.8V32.7441H340.31L334.805 15.3448V32.7441H332.655Z" fill="white"/>
<path d="M362.766 12.4551C363.575 13.4183 363.981 14.7401 363.982 16.4206V18.3573H361.705V16.2977C361.705 14.2292 360.865 13.1943 359.185 13.1928C358.346 13.1928 357.716 13.4644 357.294 14.0075C356.873 14.5506 356.662 15.314 356.664 16.2977V27.6717C356.664 28.6554 356.874 29.4188 357.294 29.9619C357.714 30.505 358.344 30.7765 359.185 30.7765C360.867 30.7765 361.707 29.7416 361.705 27.6717V24.8853H363.982V27.5597C363.982 29.2417 363.577 30.5635 362.766 31.5253C361.955 32.487 360.741 32.9686 359.123 32.9701C357.525 32.9701 356.321 32.4885 355.511 31.5253C354.702 30.5621 354.297 29.2402 354.297 27.5597V16.4206C354.297 14.7401 354.702 13.4183 355.511 12.4551C356.321 11.4919 357.525 11.0103 359.123 11.0103C360.744 11.0103 361.958 11.4919 362.766 12.4551Z" fill="white"/>
</g>
<defs>
<clipPath id="clip0_29418_5398">
<rect width="60.3017" height="44" fill="white" transform="matrix(-1 0 0 1 60.3018 0)"/>
</clipPath>
<clipPath id="clip1_29418_5398">
<rect width="283.458" height="21.9796" fill="white" transform="translate(80.5229 11.0103)"/>
</clipPath>
</defs>
</svg>
