<svg version="1.2" xmlns="http://www.w3.org/2000/svg" viewBox="0 0 1000 745" width="1000" height="745"><style>.a{fill:#ebebeb}.b{fill:#e6e6e6}.c{fill:#f0f0f0}.d{fill:#fafafa}.e{fill:#fff}.f{opacity:.6;fill:#ebebeb}.g{fill:#f5f5f5}.h{fill:#e0e0e0}.i{fill:#407bff}.j{opacity:.5;fill:#fff}.k{fill:#ffb573}.l{fill:#263238}.m{fill:#ff5652}.n{opacity:.1;fill:#fff}.o{opacity:.3}.p{opacity:.4}.q{opacity:.2}.r{opacity:.3;fill:#fff}</style><path class="a" d="m1000 655.3h-1000v-0.5h1000z"/><path class="a" d="m833.6 687h66.2v0.5h-66.2z"/><path class="a" d="m645.1 692.4h17.3v0.5h-17.3z"/><path class="a" d="m793.2 668.4h38.4v0.5h-38.4z"/><path class="a" d="m104.9 671.8h86.4v0.5h-86.4z"/><path class="a" d="m209.1 671.8h12.7v0.5h-12.7z"/><path class="a" d="m262.9 680.2h187.4v0.5h-187.4z"/><path fill-rule="evenodd" class="a" d="m474 565.6h-386.2c-6.3 0-11.4-5.1-11.4-11.4v-542.9c0-6.3 5.1-11.4 11.4-11.4h386.2c6.3 0 11.4 5.1 11.4 11.4v542.9c0 6.3-5.1 11.4-11.4 11.4zm-386.2-565.2c-6 0-10.9 4.9-10.9 10.9v542.9c0 6 4.9 10.9 10.9 10.9h386.2c6 0 10.9-4.9 10.9-10.9v-542.9c0-6-4.9-10.9-10.9-10.9z"/><path fill-rule="evenodd" class="a" d="m906.6 565.6h-386.2c-6.3 0-11.4-5.1-11.4-11.4v-542.9c0-6.3 5.1-11.4 11.4-11.4h386.2c6.3 0 11.4 5.1 11.4 11.4v542.9c0 6.3-5.1 11.4-11.4 11.4zm-386.2-565.2c-6 0-10.9 4.9-10.9 10.9v542.9c0 6 4.9 10.9 10.9 10.9h386.2c6 0 10.9-4.9 10.9-10.9v-542.9c0-6-4.9-10.9-10.9-10.9z"/><path class="b" d="m579.4 238.1h275.5v-180.4h-275.5z"/><path class="c" d="m571 238.1h280v-180.4h-280z"/><path class="b" d="m579.4 238.1h275.5v35.4h-275.5z"/><path class="c" d="m557 238.1h280v35.4h-280z"/><path class="d" d="m839.2 226.3v-156.9h-256.5v156.9z"/><path class="e" d="m781.4 226.3l-32.8-156.9h-51.1l32.8 156.9z"/><path class="c" d="m833.8 214.6c0.5 0 0.8-0.3 0.8-0.8v-136.7c0-0.5-0.3-0.8-0.8-0.8-0.5 0-0.8 0.3-0.8 0.8v136.7c0 0.5 0.3 0.8 0.8 0.8z"/><path class="e" d="m719.3 226.3l-32.8-156.9h-19.9l32.8 156.9z"/><path class="b" d="m584.2 226.3v-156.9h-1.5v156.9z"/><path class="f" d="m568.2 87.2h275.6l1-13.2h-275.5z"/><path class="f" d="m568.2 108.8h275.6l1-13.2h-275.5z"/><path class="f" d="m568.2 130.4h275.6l1-13.2h-275.5z"/><path class="f" d="m568.2 152h275.6l1-13.2h-275.5z"/><path class="f" d="m568.2 173.6h275.6l1-13.2h-275.5z"/><path class="f" d="m568.2 195.2h275.6l1-13.2h-275.5z"/><path class="b" d="m815.4 535h-57.8v-11.4h57.8z"/><path class="b" d="m648.6 654.8h10.7v-262.1h-10.7z"/><path class="g" d="m611.7 535h145.9v-11.4h-145.9z"/><path class="b" d="m815.4 597.3h-57.8v-11.4h57.8z"/><path class="g" d="m611.7 597.3h145.9v-11.4h-145.9z"/><path class="b" d="m815.4 410.3h-57.8v-11.4h57.8z"/><path class="g" d="m611.7 410.3h145.9v-11.4h-145.9z"/><path class="b" d="m815.4 472.6h-57.8v-11.4h57.8z"/><path class="g" d="m611.7 472.6h145.9v-11.4h-145.9z"/><path class="b" d="m794.5 654.8h10.7v-262.1h-10.7z"/><path class="g" d="m746.9 654.8h10.7v-262.1h-10.7z"/><path class="g" d="m611.7 654.8h10.6v-262.1h-10.6z"/><path class="b" d="m130.7 654.8h109.2v-211.8h-109.2z"/><path class="d" d="m159.9 654.8h-29.2v-29.2h59.8z"/><path class="b" d="m428.4 654.8h109.1v-211.8h-109.1z"/><path class="d" d="m130.7 644.7h323.1v-201.7h-323.1z"/><path class="d" d="m424.7 654.8h29.1v-29.2h-59.7z"/><path class="c" d="m153.4 568.7h277.8v-50.5h-277.8z"/><path class="c" d="m153.4 629.9h277.8v-50.4h-277.8z"/><path class="d" d="m206.2 523.6h172.2c5 0 9.1-4.1 9.1-9.2v-0.6h-190.5v0.6c0 5.1 4.1 9.2 9.2 9.2z"/><path class="c" d="m153.4 507.4h277.8v-50.5h-277.8z"/><path class="d" d="m206.2 462.3h172.2c5 0 9.1-4.1 9.1-9.1v-0.7h-190.5v0.7c0 5 4.1 9.1 9.2 9.1z"/><path class="d" d="m206.2 584.9h172.2c5 0 9.1-4.1 9.1-9.2v-0.6h-190.5v0.6c0 5.1 4.1 9.2 9.2 9.2z"/><path class="b" d="m148.1 238.1h275.6v-180.4h-275.6z"/><path class="c" d="m139.7 238.1h280.1v-180.4h-280.1z"/><path class="b" d="m148.1 238.1h275.6v35.4h-275.6z"/><path class="c" d="m125.7 238.1h280.1v35.4h-280.1z"/><path class="d" d="m408 226.3v-156.9h-256.5v156.9z"/><path class="e" d="m350.2 226.3l-32.8-156.9h-51.1l32.7 156.9z"/><path class="c" d="m402.5 214.6c0.5 0 0.9-0.3 0.9-0.8v-136.7c0-0.5-0.4-0.8-0.9-0.8-0.4 0-0.8 0.3-0.8 0.8v136.7c0 0.5 0.4 0.8 0.8 0.8z"/><path class="e" d="m288.1 226.3l-32.8-156.9h-19.9l32.7 156.9z"/><path class="b" d="m153 226.3v-156.9h-1.5v156.9z"/><path class="f" d="m136.9 87.2h275.6l1.1-13.2h-275.6z"/><path class="f" d="m136.9 94.6h275.6l1.1-13.2h-275.6z"/><path class="f" d="m136.9 102h275.6l1.1-13.1h-275.6z"/><path class="f" d="m136.9 109.5h275.6l1.1-13.2h-275.6z"/><path class="f" d="m136.9 116.9h275.6l1.1-13.2h-275.6z"/><path class="f" d="m136.9 124.3h275.6l1.1-13.1h-275.6z"/><path class="g" d="m192 436.5h9.6v-106.1h-9.6z"/><path class="d" d="m193.3 436.5h2.6v-106.2h-2.6z"/><path class="d" d="m197.1 436.5h1v-106.2h-1z"/><path class="c" d="m161.5 443h70.6c0-4.9-4-8.9-8.9-8.9h-52.8c-4.9 0-8.9 4-8.9 8.9z"/><path class="c" d="m179.7 396.3c1.5 0 2.7-1.3 2.7-2.8v-69.6c0-1.5-1.2-2.7-2.7-2.7-1.5 0-2.8 1.2-2.8 2.7v69.6c0 1.5 1.3 2.8 2.8 2.8z"/><path class="h" d="m154.1 355.6h85.3l-9.8-59.6h-65.6z"/><path class="g" d="m887.8 722.5c0 12.5-173.6 22.6-387.8 22.6-214.2 0-387.8-10.1-387.8-22.6 0-12.5 173.6-22.7 387.8-22.7 214.2 0 387.8 10.2 387.8 22.7z"/><path class="i" d="m208.9 331.7l-2.7-36.8 2-0.2 2.7 36.9z"/><path class="i" d="m211.3 364.7l-1-13.9 2-0.2 1 13.9z"/><path class="i" d="m675.4 520.3h-428.3c-9.7 0-18.2-7.9-18.9-17.6l-21-292.3c-0.7-9.6 6.6-17.6 16.3-17.6h428.3c9.7 0 18.2 8 18.9 17.6l21.1 292.3c0.7 9.7-6.7 17.6-16.4 17.6z"/><path class="i" d="m677.1 520.3h-428.4c-9.6 0-18.1-7.9-18.8-17.6l-21.1-292.3c-0.7-9.6 6.7-17.6 16.4-17.6h428.3c9.7 0 18.2 8 18.9 17.6l21 292.3c0.7 9.7-6.6 17.6-16.3 17.6z"/><path class="j" d="m677.1 520.3h-428.4c-9.6 0-18.1-7.9-18.8-17.6l-21.1-292.3c-0.7-9.6 6.7-17.6 16.4-17.6h428.3c9.7 0 18.2 8 18.9 17.6l21 292.3c0.7 9.7-6.6 17.6-16.3 17.6z"/><path class="i" d="m654.1 201.6h-428.3q-0.7 0-1.4 0.1c-11 0.9-8.7 17.6 2.3 17.6h429c11.1 0 10.9-16.7-0.1-17.6q-0.8-0.1-1.5-0.1z"/><path class="d" d="m237 210.4c0.1 2.3-1.6 4.1-3.8 4.1-2.2 0-4.2-1.8-4.3-4.1-0.2-2.2 1.5-4 3.7-4 2.3 0 4.2 1.8 4.4 4z"/><path class="d" d="m250.7 210.4c0.2 2.3-1.5 4.1-3.8 4.1-2.2 0-4.1-1.8-4.3-4.1-0.1-2.2 1.5-4 3.8-4 2.2 0 4.1 1.8 4.3 4z"/><path class="d" d="m264.4 210.4c0.2 2.3-1.5 4.1-3.7 4.1-2.3 0-4.2-1.8-4.3-4.1-0.2-2.2 1.5-4 3.7-4 2.2 0 4.2 1.8 4.3 4z"/><path class="e" d="m663.7 491.2h-409.8c-3.5 0-6.6-2.9-6.8-6.4l-17.3-240.4c-0.3-3.5 2.3-6.4 5.9-6.4h409.8c3.5 0 6.6 2.9 6.8 6.4l17.3 240.4c0.3 3.5-2.4 6.4-5.9 6.4z"/><path class="e" d="m493.1 399.6l-6.7-92.6-20.2-12.2h-55.6l7.5 104.8z"/><path fill-rule="evenodd" class="i" d="m493.1 400.6h-75c-0.5 0-0.9-0.4-1-0.9l-7.5-104.8c0-0.3 0.1-0.6 0.3-0.8 0.1-0.2 0.4-0.3 0.7-0.3h55.6q0.2 0 0.5 0.2l20.2 12.1c0.3 0.2 0.4 0.5 0.5 0.8l6.6 92.6c0 0.3 0 0.6-0.2 0.8-0.2 0.2-0.5 0.3-0.7 0.3zm-74.1-2h73l-6.5-91.1-19.6-11.7h-54.3z"/><path class="a" d="m486.4 307l-20.2-12.2 7.4 16.1z"/><path fill-rule="evenodd" class="i" d="m473.6 311.9c-0.4 0-0.7-0.2-0.9-0.6l-7.4-16.1c-0.2-0.4-0.1-0.8 0.2-1.1 0.3-0.3 0.8-0.4 1.2-0.1l20.2 12.1c0.3 0.2 0.5 0.6 0.5 1-0.1 0.4-0.4 0.7-0.7 0.8l-12.8 3.9q-0.2 0.1-0.3 0.1zm-5.2-14.7l5.7 12.5 9.9-3z"/><path class="i" d="m441.9 342c0.2 2.3-1.6 4.2-3.9 4.2-2.3 0-4.4-1.9-4.5-4.2-0.2-2.3 1.6-4.2 3.9-4.2 2.3 0 4.4 1.9 4.5 4.2z"/><path class="i" d="m469.4 342c0.2 2.3-1.6 4.2-3.9 4.2-2.4 0-4.4-1.9-4.6-4.2-0.1-2.3 1.6-4.2 4-4.2 2.3 0 4.3 1.9 4.5 4.2z"/><path class="i" d="m477.2 369.5c-0.5 0-1-0.4-1-0.9-0.5-6.8-11.2-12.4-23.8-12.4-8.4 0-15.9 2.5-19.6 6.5q-2.5 2.7-2.3 5.7c0 0.6-0.4 1-0.9 1.1-0.5 0-1-0.4-1-0.9-0.2-2.6 0.8-5 2.8-7.2 4-4.4 12.1-7.1 21-7.1 13.9 0 25.2 6.2 25.7 14.1 0.1 0.6-0.3 1-0.9 1.1q0 0 0 0z"/><path class="i" d="m426.3 333.4q-0.3 0-0.6-0.2c-0.4-0.4-0.4-1-0.1-1.4l4.3-4.6c0.3-0.4 0.9-0.4 1.3 0 0.4 0.3 0.5 1 0.1 1.3l-4.3 4.6c-0.1 0.2-0.4 0.3-0.7 0.3z"/><path class="i" d="m475.2 333.4q-0.4 0-0.7-0.2l-4.9-4.6c-0.4-0.4-0.4-1 0-1.4 0.3-0.4 0.9-0.4 1.3 0l4.9 4.6c0.4 0.3 0.4 0.9 0.1 1.3-0.2 0.2-0.5 0.3-0.7 0.3z"/><path class="i" d="m404.5 420.3h4.5l6.6 8.7-0.7-8.7h4.6l1.1 15.7h-4.5l-6.5-8.6 0.6 8.6h-4.6z"/><path fill-rule="evenodd" class="i" d="m422.7 428.1q-0.3-3.8 1.7-5.9 2-2.2 5.8-2.2 3.9 0 6.2 2.1 2.2 2.1 2.5 5.9 0.2 2.8-0.6 4.5-0.8 1.8-2.5 2.8-1.7 0.9-4.3 0.9-2.6 0-4.4-0.8-1.8-0.9-3-2.7-1.2-1.8-1.4-4.6zm4.8 0.1q0.2 2.3 1.1 3.4 1 1 2.5 1 1.6 0 2.4-1 0.7-1 0.5-3.6-0.1-2.3-1.1-3.3-0.9-1-2.5-1-1.4 0-2.3 1-0.8 1.1-0.6 3.5z"/><path fill-rule="evenodd" class="i" d="m448.3 420.3h7.2q2.1 0 3.5 0.6 1.3 0.6 2.3 1.6 0.9 1.1 1.4 2.5 0.5 1.5 0.6 3.1 0.2 2.5-0.3 3.9-0.5 1.4-1.4 2.3-1 0.9-2.1 1.2-1.6 0.5-2.9 0.5h-7.2zm5.1 3.5l0.6 8.6h1.2q1.5 0 2.2-0.4 0.6-0.3 0.9-1.1 0.3-0.9 0.2-2.8-0.2-2.4-1.1-3.4-0.9-0.9-2.8-0.9z"/><path fill-rule="evenodd" class="i" d="m474.9 433.4h-5.5l-0.6 2.6h-4.9l4.7-15.7h5.3l7 15.7h-5zm-1.3-3.4l-2.1-5.6-1.3 5.6z"/><path class="i" d="m478.7 420.3h14.8l0.2 3.9h-4.9l0.8 11.8h-4.8l-0.8-11.8h-5z"/><path fill-rule="evenodd" class="i" d="m504.7 433.4h-5.5l-0.5 2.6h-5l4.8-15.7h5.3l7 15.7h-5.1zm-1.2-3.4l-2.2-5.6-1.3 5.6z"/><path class="k" d="m707.4 236.2c1.8-0.9 3.9-2.1 5.9-3.2q3-1.6 5.9-3.4c3.9-2.4 7.9-4.8 11.6-7.5 7.6-5.2 14.7-11 21.1-17.3 0.8-0.7 1.5-1.6 2.3-2.4l1.1-1.2 0.6-0.6 0.3-0.3c0.1-0.1 0-0.1 0-0.1l-0.1 0.1c-0.2 0.6 0 0.4 0.1-0.1 0.1-0.5 0.3-1.3 0.3-2.2 0.1-3.6-0.6-8.2-1.5-12.6-1.7-9-4.4-18.2-7.1-27.3l7.8-3.4c4.8 8.7 8.9 17.6 12.2 27.2 1.6 4.9 3 9.8 3.4 15.8 0.1 1.6 0.1 3.2-0.1 5-0.3 1.9-0.8 4.1-2.5 6.6l-0.3 0.5-0.3 0.3-0.3 0.4-0.6 0.7-1.2 1.5c-0.9 1-1.7 2.1-2.5 3-6.9 7.6-14.6 14.4-22.8 20.3-4.1 3-8.2 5.8-12.6 8.4q-3.2 1.9-6.5 3.7c-2.3 1.3-4.4 2.4-7 3.6z"/><path fill-rule="evenodd" class="i" d="m686.4 705.5q-0.8-0.8-0.7-2.1c0.1-0.7 0.5-1 0.8-1.1 2-0.9 7.1 2.4 7.6 2.7 0.2 0.1 0.2 0.3 0.2 0.4 0 0.2-0.1 0.3-0.3 0.4-1.2 0.2-2.9 0.6-4.4 0.6-1.3 0-2.5-0.3-3.2-0.9zm0.5-2.5c-0.2 0-0.3 0.2-0.4 0.5q-0.1 0.9 0.4 1.4c0.9 0.8 3.1 0.9 6 0.3-2.1-1.3-5-2.7-6-2.2z"/><path fill-rule="evenodd" class="i" d="m693.7 705.7c-1.6-0.9-4.6-4.5-4.2-6.4 0-0.4 0.3-1 1.3-1.1q0.9-0.1 1.7 0.5c1.8 1.6 1.8 6.5 1.8 6.7q0 0.2-0.2 0.3-0.1 0.1-0.2 0.1-0.1 0-0.2-0.1zm-2.8-6.7c-0.5 0-0.6 0.3-0.7 0.5-0.2 1.1 1.7 3.8 3.3 5.1-0.1-1.6-0.5-4.3-1.6-5.3q-0.3-0.3-0.8-0.3-0.1 0-0.2 0z"/><path class="k" d="m692.4 186.1c-1.9 10-6 30.1 0.9 36.7 0 0-2.7 10.1-21.1 10.1-20.4 0-9.7-10.1-9.7-10.1 11-2.6 10.7-10.8 8.8-18.6z"/><path class="l" d="m658.6 226.8c-3.2 0.5-0.5-7.8 0.8-8.6 3-2 41.7-4.8 41.4-0.1-0.1 2-1.1 6-2.8 7.3-1.7 1.3-11.6-2.7-39.4 1.4z"/><path class="l" d="m664.9 224.1c-2.6 0.8-2.3-7.5-1.5-8.5 2-2.3 33.4-10.4 34.3-5.8 0.4 2 0.5 5.9-0.5 7.4-1.1 1.5-10.3-1-32.3 6.9z"/><path class="l" d="m653.2 168.2c-0.2 0-0.5-0.1-0.6-0.3-2.3-2.7-5.2-2.4-5.2-2.4-0.5 0-0.8-0.3-0.9-0.7 0-0.5 0.3-0.9 0.7-0.9 0.2 0 3.8-0.4 6.6 3 0.3 0.4 0.2 0.9-0.1 1.1q-0.2 0.2-0.5 0.2z"/><path class="m" d="m649.3 178c0 0-1.7 6-3.9 9.1 1.9 1.4 4.9 0.4 4.9 0.4z"/><path class="l" d="m650.3 175.6c0.2 1.3-0.5 2.5-1.3 2.6-0.9 0.1-1.7-1-1.9-2.3-0.1-1.4 0.5-2.5 1.4-2.6 0.9-0.1 1.7 0.9 1.8 2.3z"/><path class="l" d="m648.9 173.3l-3.3-0.6c0 0 1.9 2.4 3.3 0.6z"/><path class="k" d="m713.4 705.4h-16.8l1.4-38.8h16.7z"/><path class="l" d="m695.3 703.4h18.8c0.7 0 1.3 0.5 1.4 1.2l2.1 14.9c0.2 1.5-1.1 3-2.7 2.9-6.5-0.1-9.7-0.5-18-0.5-5.1 0-12.5 0.6-19.5 0.6-6.9 0-7.4-7-4.5-7.6 13.1-2.8 15.2-6.7 19.6-10.4 0.8-0.7 1.8-1.1 2.8-1.1z"/><g style="opacity:.2"><path  d="m714.7 666.6h-16.7l-0.7 20h16.7z"/></g><path class="k" d="m646.7 246.1c-10.3-4.1-20.2-8.5-30.1-13.5-9.8-5.1-19.5-10.4-28.8-17.6-2.3-1.8-4.6-3.8-6.8-6.1-0.6-0.6-1.1-1.2-1.7-1.9-0.5-0.7-1-1.1-1.7-2.2-1.4-2-2.4-4.6-2.7-7.2-0.3-2.7 0.2-5.2 1-7.3 0.7-2 1.7-3.7 2.8-5.2 2.1-2.9 4.4-5.1 6.8-7 4.7-3.9 9.6-6.7 14.6-9.4q3.7-1.9 7.5-3.6c2.6-1.1 5.1-2.1 7.9-3l3.5 7.7c-8.7 5.5-17.8 11.5-24.4 18.3-1.6 1.7-3 3.4-3.9 5-1 1.5-0.9 2.7-0.8 2.6 0.1 0 0.1 0 0.3 0.2l0.8 0.9c0.3 0.3 0.7 0.7 1.1 1.1 1.6 1.4 3.4 2.9 5.4 4.3 4 2.8 8.3 5.5 12.9 7.9q6.7 3.8 13.8 7.2c9.5 4.5 19.2 8.9 28.8 12.8z"/><path class="k" d="m623.9 164.3l2.8-6-12.6-4.4c0 0-3.9 11.8 0.8 17.3 3.9-0.7 7.4-3.2 9-6.9z"/><path class="k" d="m626.7 145.3l-10.1-2.9-2.5 11.5 12.6 4.4z"/><path class="k" d="m756.7 158.9l1.5-14.1-13 3.1c0 0-0.2 13.2 6.7 15.2z"/><path class="k" d="m751.9 135l-8.4 4 1.7 8.9 13-3.1z"/><path class="k" d="m695.1 166.5c0.6 16.6 1.2 23.6-6.3 32.9-11.3 14-31.8 11.1-37.4-5-5-14.4-5.2-39.2 10.4-47.3 15.2-8.1 32.7 2.8 33.3 19.4z"/><path class="l" d="m687.8 199.4c16.4-7 27.1-21.9 22.6-45.1-4.4-22.3-19.4-24.5-25.6-19.9-6.2 4.7-21.6-2.2-30.9 5.6-16.1 13.5-0.9 28.1 7 36.7 4.7 9.7 10.9 29.6 26.9 22.7z"/><path class="i" d="m681.1 150.3c5.5 7.9 16 10.2 23.5 5 7.6-5.2 9.2-15.9 3.7-23.8-5.5-8-16.1-10.3-23.6-5.1-7.5 5.2-9.1 15.9-3.6 23.9z"/><path class="l" d="m685.3 136c-2.3-13.4 10.3-23.7 27.3-18.7 16.9 5 8 20 4.5 32-3.5 12 5.6 23.4 9.4 14.3 3.9-9.2-2.6-12-2.6-12 0 0 18 4.7 1.3 25-16.7 20.3-31.8-2.1-27.7-15.4 3.3-10.6-10-12.5-12.2-25.2z"/><path class="l" d="m668.4 141.1c-7.8-4.1-20.9-7.3-28.3 5.2-3.6 5.9-2.2 14-2.2 14l22.8 1.5z"/><path class="l" d="m635.2 156.4q0 0 0 0c-0.3-0.1-0.5-0.3-0.5-0.6 0-0.3 0.6-8.4 5.5-13.4 11.7-12.2 25.5-2.1 29.4 1.3 0.2 0.2 0.2 0.5 0 0.7-0.1 0.2-0.5 0.2-0.7 0.1-3.7-3.3-16.9-13-28-1.4-4.6 4.8-5.2 12.7-5.2 12.8 0 0.3-0.2 0.5-0.5 0.5z"/><path class="k" d="m663.7 176.1c0 3.2-1.5 6.4-3.3 8.5-2.8 3.3-5.9 1.7-6.7-1.9-0.6-3.2 0-8.8 3.5-10.8 3.5-1.9 6.5 0.5 6.5 4.2z"/><path class="l" d="m660.1 328.2c0 0 1.1 116.3 11.2 181.1 8.1 52.4 23.2 173.4 23.2 173.4h22.8c0 0 2.3-116.8-1.9-168.6-10.4-131 16.6-155.5-5.2-185.9z"/><path class="n" d="m660.1 328.2c0 0 1.1 116.3 11.2 181.1 8.1 52.4 23.2 173.4 23.2 173.4h22.8c0 0 2.3-116.8-1.9-168.6-10.4-131 16.6-155.5-5.2-185.9z"/><path class="o" d="m672.1 381c8 35.1 1.6 90.4-2.7 114.7-4.7-36.9-7-84.8-8.2-119.9 4.2-6.8 8.1-7.2 10.9 5.2z"/><path class="i" d="m691.4 683.2h29.1l1.5-10.2-30.8-1.1z"/><path class="i" d="m699.7 230.1c2.7-5.5 17.4-8.9 25.5-8.9l6 26.8c0 0-16 23.7-22.7 21.2-7.9-3-14.7-27.5-8.8-39.1z"/><path class="p" d="m699.7 230.1c2.7-5.5 17.4-8.9 25.5-8.9l6 26.8c0 0-16 23.7-22.7 21.2-7.9-3-14.7-27.5-8.8-39.1z"/><path fill-rule="evenodd" class="i" d="m682.7 676.7c-1.9 2-5.4 5.4-7.8 5.1q-1.1-0.1-1.8-1.1-0.3-0.6 0-1.3c1-2.1 8.4-3.2 9.2-3.4 0.2 0 0.3 0.1 0.4 0.2q0.1 0.2 0 0.4 0 0.1 0 0.1zm-8.9 3.1q-0.1 0.2 0 0.5 0.4 0.7 1.1 0.7c1.4 0.2 3.7-1.3 6.4-4-3 0.5-6.8 1.6-7.5 2.7q0 0 0 0.1z"/><path fill-rule="evenodd" class="i" d="m682.4 676.8c-2.1 0.5-7.4-0.1-8.3-1.9-0.2-0.4-0.3-1 0.6-1.7q0.9-0.9 2.1-0.8c2.8 0.2 5.7 3.6 5.9 3.8q0.1 0.1 0 0.3 0 0.1 0 0.1-0.1 0.2-0.3 0.2zm-7.6-2.2c0.5 1 4.4 1.7 6.8 1.5-1-0.9-3-2.8-4.8-2.9q-0.9-0.1-1.6 0.5-0.2 0.3-0.3 0.4c-0.2 0.3-0.1 0.4-0.1 0.5z"/><path class="k" d="m700.2 669.5l-15.4 6.8-6.8-14.2-8.9-18.6-1.1-2.1 15.4-6.9 1.1 2.5 8.7 18z"/><path class="q" d="m693.2 655l-15.2 7.1-8.9-18.6 15.4-6.5z"/><path class="l" d="m642.1 328.2c0 0-48.9 121.7-35.6 179 11.9 51.8 65 149.8 65 149.8l20.5-10.2c0 0-32.8-118.4-36.4-144.1-6.9-50.1 37.6-120.7 37.6-174.5z"/><path class="n" d="m642.1 328.2c0 0-48.9 121.7-35.6 179 11.9 51.8 65 149.8 65 149.8l20.5-10.2c0 0-32.8-118.4-36.4-144.1-6.9-50.1 37.6-120.7 37.6-174.5z"/><path class="l" d="m682.1 674.2l15.2-11.1c0.6-0.4 1.3-0.3 1.8 0.2l10.5 10.7c1.1 1.2 0.9 3.1-0.4 4-5.4 3.8-8.2 5.4-14.9 10.2-4.1 3-12.3 9.6-18 13.8-5.6 4-10.1-1.3-8.1-3.5 9-10 10.9-16.2 12.3-21.8 0.2-1 0.8-1.9 1.6-2.5z"/><path class="i" d="m670.1 661.4l26.5-12.1-3.4-10.8-28.3 12.9z"/><path class="i" d="m655.1 228.7c-2.2-5.7-21.3-11.9-30.9-14.1l-4.2 31.6c0 0 15.7 22.5 22.5 20.6 8.2-2.2 17.3-25.9 12.6-38.1z"/><path class="p" d="m655.1 228.7c-2.2-5.7-21.3-11.9-30.9-14.1l-4.2 31.6c0 0 15.7 22.5 22.5 20.6 8.2-2.2 17.3-25.9 12.6-38.1z"/><path class="i" d="m634.1 227.1c0 0-7.9 2.8 8 101.1 27 0 54.9 0 68.1 0-1.2-27.6-1.2-44.7 12-101.6 0 0-14.2-3.1-28.9-3.8-11.4-0.5-20.8-0.9-30.8 0-13.3 1.3-28.4 4.3-28.4 4.3z"/><path class="p" d="m634.1 227.1c0 0-7.9 2.8 8 101.1 27 0 54.9 0 68.1 0-1.2-27.6-1.2-44.7 12-101.6 0 0-14.2-3.1-28.9-3.8-11.4-0.5-20.8-0.9-30.8 0-13.3 1.3-28.4 4.3-28.4 4.3z"/><path class="i" d="m711.2 324.3l3.1 6c0.2 0.5-0.4 1-1.1 1h-71.4c-0.6 0-1.1-0.3-1.2-0.7l-0.6-6.1c0-0.4 0.5-0.8 1.2-0.8h68.9c0.5 0 0.9 0.2 1.1 0.6z"/><path class="r" d="m711.2 324.3l3.1 6c0.2 0.5-0.4 1-1.1 1h-71.4c-0.6 0-1.1-0.3-1.2-0.7l-0.6-6.1c0-0.4 0.5-0.8 1.2-0.8h68.9c0.5 0 0.9 0.2 1.1 0.6z"/><path class="l" d="m701.9 332h1.9c0.4 0 0.6-0.2 0.6-0.5l-0.9-7.9c0-0.2-0.3-0.4-0.7-0.4h-1.8c-0.4 0-0.7 0.2-0.6 0.4l0.8 7.9c0.1 0.3 0.4 0.5 0.7 0.5z"/><path class="l" d="m657.2 332h1.9c0.3 0 0.6-0.2 0.6-0.5l-0.9-7.9c0-0.2-0.3-0.4-0.7-0.4h-1.8c-0.4 0-0.7 0.2-0.7 0.4l0.9 7.9c0 0.3 0.3 0.5 0.7 0.5z"/></svg>