<svg version="1.2" xmlns="http://www.w3.org/2000/svg" viewBox="0 0 776 678" width="776" height="678"><style>.a{fill:#407bff}.b{opacity:.9;fill:#fff}.c{fill:#f5f5f5}.d{opacity:.5;fill:#fff}.e{fill:#fafafa}.f{fill:#fff}.g{fill:#ebebeb}.h{fill:#ffb573}.i{fill:#263238}.j{fill:#ff5652}.k{opacity:.1;fill:#fff}.l{opacity:.3}.m{opacity:.4}.n{opacity:.2}.o{opacity:.3;fill:#fff}</style><path class="a" d="m368.9 77.2c96.2 10.8 138.5-72.6 233.8-61.7 85.1 9.7 143.8 70.3 123.9 152-17.6 72.5-101.6 95.2-131.5 163.1-31.6 72-56.2 149.6-151.8 174.6-187.7 49.2-278.9-181.7-291.6-314.4-4.9-50.9-13.5-172.6 53-188.4 66.9-15.9 105.2 68.2 164.2 74.8z"/><path class="b" d="m368.9 77.2c96.2 10.8 138.5-72.6 233.8-61.7 85.1 9.7 143.8 70.3 123.9 152-17.6 72.5-101.6 95.2-131.5 163.1-31.6 72-56.2 149.6-151.8 174.6-187.7 49.2-278.9-181.7-291.6-314.4-4.9-50.9-13.5-172.6 53-188.4 66.9-15.9 105.2 68.2 164.2 74.8z"/><path class="c" d="m775.8 655.5c0 12.5-173.6 22.6-387.8 22.6-214.2 0-387.8-10.1-387.8-22.6 0-12.5 173.6-22.7 387.8-22.7 214.2 0 387.8 10.2 387.8 22.7z"/><path class="a" d="m96.9 264.7l-2.7-36.8 2-0.2 2.7 36.9z"/><path class="a" d="m99.3 297.7l-1-13.9 2-0.2 1 13.9z"/><path class="a" d="m563.4 453.3h-428.3c-9.7 0-18.2-7.9-18.9-17.6l-21-292.3c-0.7-9.6 6.6-17.6 16.3-17.6h428.3c9.7 0 18.2 8 18.9 17.6l21.1 292.3c0.7 9.7-6.7 17.6-16.4 17.6z"/><path class="a" d="m565.1 453.3h-428.4c-9.6 0-18.1-7.9-18.8-17.6l-21.1-292.3c-0.7-9.6 6.7-17.6 16.4-17.6h428.3c9.7 0 18.2 8 18.9 17.6l21 292.3c0.7 9.7-6.6 17.6-16.3 17.6z"/><path class="d" d="m565.1 453.3h-428.4c-9.6 0-18.1-7.9-18.8-17.6l-21.1-292.3c-0.7-9.6 6.7-17.6 16.4-17.6h428.3c9.7 0 18.2 8 18.9 17.6l21 292.3c0.7 9.7-6.6 17.6-16.3 17.6z"/><path class="a" d="m542.1 134.6h-428.3q-0.7 0-1.4 0.1c-11 0.9-8.7 17.6 2.3 17.6h429c11.1 0 10.9-16.7-0.1-17.6q-0.8-0.1-1.5-0.1z"/><path class="e" d="m125 143.4c0.1 2.3-1.6 4.1-3.8 4.1-2.2 0-4.2-1.8-4.3-4.1-0.2-2.2 1.5-4 3.7-4 2.3 0 4.2 1.8 4.4 4z"/><path class="e" d="m138.7 143.4c0.2 2.3-1.5 4.1-3.8 4.1-2.2 0-4.1-1.8-4.3-4.1-0.1-2.2 1.5-4 3.8-4 2.2 0 4.1 1.8 4.3 4z"/><path class="e" d="m152.4 143.4c0.2 2.3-1.5 4.1-3.7 4.1-2.3 0-4.2-1.8-4.3-4.1-0.2-2.2 1.5-4 3.7-4 2.2 0 4.2 1.8 4.3 4z"/><path class="f" d="m553.7 424.2h-409.8c-3.5 0-6.6-2.9-6.8-6.4l-17.3-240.4c-0.3-3.5 2.3-6.4 5.9-6.4h409.8c3.5 0 6.6 2.9 6.8 6.4l17.3 240.4c0.3 3.5-2.4 6.4-5.9 6.4z"/><path class="f" d="m381.1 332.6l-6.7-92.6-20.2-12.2h-55.6l7.5 104.8z"/><path fill-rule="evenodd" class="a" d="m381.1 333.6h-75c-0.5 0-0.9-0.4-1-0.9l-7.5-104.8c0-0.3 0.1-0.6 0.3-0.8 0.1-0.2 0.4-0.3 0.7-0.3h55.6q0.2 0 0.5 0.2l20.2 12.1c0.3 0.2 0.4 0.5 0.5 0.8l6.6 92.6c0 0.3 0 0.6-0.2 0.8-0.2 0.2-0.5 0.3-0.7 0.3zm-74.1-2h73l-6.5-91.1-19.6-11.7h-54.3z"/><path class="g" d="m374.4 240l-20.2-12.2 7.4 16.1z"/><path fill-rule="evenodd" class="a" d="m361.6 244.9c-0.4 0-0.7-0.2-0.9-0.6l-7.4-16.1c-0.2-0.4-0.1-0.8 0.2-1.1 0.3-0.3 0.8-0.4 1.2-0.1l20.2 12.1c0.3 0.2 0.5 0.6 0.5 1-0.1 0.4-0.4 0.7-0.7 0.8l-12.8 3.9q-0.2 0.1-0.3 0.1zm-5.2-14.7l5.7 12.5 9.9-3z"/><path class="a" d="m329.9 275c0.2 2.3-1.6 4.2-3.9 4.2-2.3 0-4.4-1.9-4.5-4.2-0.2-2.3 1.6-4.2 3.9-4.2 2.3 0 4.4 1.9 4.5 4.2z"/><path class="a" d="m357.4 275c0.2 2.3-1.6 4.2-3.9 4.2-2.4 0-4.4-1.9-4.6-4.2-0.1-2.3 1.6-4.2 4-4.2 2.3 0 4.3 1.9 4.5 4.2z"/><path class="a" d="m365.2 302.5c-0.5 0-1-0.4-1-0.9-0.5-6.8-11.2-12.4-23.8-12.4-8.4 0-15.9 2.5-19.6 6.5q-2.5 2.7-2.3 5.7c0 0.6-0.4 1-0.9 1.1-0.5 0-1-0.4-1-0.9-0.2-2.6 0.8-5 2.8-7.2 4-4.4 12.1-7.1 21-7.1 13.9 0 25.2 6.2 25.7 14.1 0.1 0.6-0.3 1-0.9 1.1q0 0 0 0z"/><path class="a" d="m314.3 266.4q-0.3 0-0.6-0.2c-0.4-0.4-0.4-1-0.1-1.4l4.3-4.6c0.3-0.4 0.9-0.4 1.3 0 0.4 0.3 0.5 1 0.1 1.3l-4.3 4.6c-0.1 0.2-0.4 0.3-0.7 0.3z"/><path class="a" d="m363.2 266.4q-0.4 0-0.7-0.2l-4.9-4.6c-0.4-0.4-0.4-1 0-1.4 0.3-0.4 0.9-0.4 1.3 0l4.9 4.6c0.4 0.3 0.4 0.9 0.1 1.3-0.2 0.2-0.5 0.3-0.7 0.3z"/><path class="a" d="m292.5 353.3h4.5l6.6 8.7-0.7-8.7h4.6l1.1 15.7h-4.5l-6.5-8.6 0.6 8.6h-4.6z"/><path fill-rule="evenodd" class="a" d="m310.7 361.1q-0.3-3.8 1.7-5.9 2-2.2 5.8-2.2 3.9 0 6.2 2.1 2.2 2.1 2.5 5.9 0.2 2.8-0.6 4.5-0.8 1.8-2.5 2.8-1.7 0.9-4.3 0.9-2.6 0-4.4-0.8-1.8-0.9-3-2.7-1.2-1.8-1.4-4.6zm4.8 0.1q0.2 2.3 1.1 3.4 1 1 2.5 1 1.6 0 2.4-1 0.7-1 0.5-3.6-0.1-2.3-1.1-3.3-0.9-1-2.5-1-1.4 0-2.3 1-0.8 1.1-0.6 3.5z"/><path fill-rule="evenodd" class="a" d="m336.3 353.3h7.2q2.1 0 3.5 0.6 1.3 0.6 2.3 1.6 0.9 1.1 1.4 2.5 0.5 1.5 0.6 3.1 0.2 2.5-0.3 3.9-0.5 1.4-1.4 2.3-1 0.9-2.1 1.2-1.6 0.5-2.9 0.5h-7.2zm5.1 3.5l0.6 8.6h1.2q1.5 0 2.2-0.4 0.6-0.3 0.9-1.1 0.3-0.9 0.2-2.8-0.2-2.4-1.1-3.4-0.9-0.9-2.8-0.9z"/><path fill-rule="evenodd" class="a" d="m362.9 366.4h-5.5l-0.6 2.6h-4.9l4.7-15.7h5.3l7 15.7h-5zm-1.3-3.4l-2.1-5.6-1.3 5.6z"/><path class="a" d="m366.7 353.3h14.8l0.2 3.9h-4.9l0.8 11.8h-4.8l-0.8-11.8h-5z"/><path fill-rule="evenodd" class="a" d="m392.7 366.4h-5.5l-0.5 2.6h-5l4.8-15.7h5.3l7 15.7h-5.1zm-1.2-3.4l-2.2-5.6-1.3 5.6z"/><path class="h" d="m595.4 169.2c1.8-0.9 3.9-2.1 5.9-3.2q3-1.6 5.9-3.4c3.9-2.4 7.9-4.8 11.6-7.5 7.6-5.2 14.7-11 21.1-17.3 0.8-0.7 1.5-1.6 2.3-2.4l1.1-1.2 0.6-0.6 0.3-0.3c0.1-0.1 0-0.1 0-0.1l-0.1 0.1c-0.2 0.6 0 0.4 0.1-0.1 0.1-0.5 0.3-1.3 0.3-2.2 0.1-3.6-0.6-8.2-1.5-12.6-1.7-9-4.4-18.2-7.1-27.3l7.8-3.4c4.8 8.7 8.9 17.6 12.2 27.2 1.6 4.9 3 9.8 3.4 15.8 0.1 1.6 0.1 3.2-0.1 5-0.3 1.9-0.8 4.1-2.5 6.6l-0.3 0.5-0.3 0.3-0.3 0.4-0.6 0.7-1.2 1.5c-0.9 1-1.7 2.1-2.5 3-6.9 7.6-14.6 14.4-22.8 20.3-4.1 3-8.2 5.8-12.6 8.4q-3.2 1.9-6.5 3.7c-2.3 1.3-4.4 2.4-7 3.6z"/><path fill-rule="evenodd" class="a" d="m574.4 638.5q-0.8-0.8-0.7-2.1c0.1-0.7 0.5-1 0.8-1.1 2-0.9 7.1 2.4 7.6 2.7 0.2 0.1 0.2 0.3 0.2 0.4 0 0.2-0.1 0.3-0.3 0.4-1.2 0.2-2.9 0.6-4.4 0.6-1.3 0-2.5-0.3-3.2-0.9zm0.5-2.5c-0.2 0-0.3 0.2-0.4 0.5q-0.1 0.9 0.4 1.4c0.9 0.8 3.1 0.9 6 0.3-2.1-1.3-5-2.7-6-2.2z"/><path fill-rule="evenodd" class="a" d="m581.7 638.7c-1.6-0.9-4.6-4.5-4.2-6.4 0-0.4 0.3-1 1.3-1.1q0.9-0.1 1.7 0.5c1.8 1.6 1.8 6.5 1.8 6.7q0 0.2-0.2 0.3-0.1 0.1-0.2 0.1-0.1 0-0.2-0.1zm-2.8-6.7c-0.5 0-0.6 0.3-0.7 0.5-0.2 1.1 1.7 3.8 3.3 5.1-0.1-1.6-0.5-4.3-1.6-5.3q-0.3-0.3-0.8-0.3-0.1 0-0.2 0z"/><path class="h" d="m580.4 119.1c-1.9 10-6 30.1 0.9 36.7 0 0-2.7 10.1-21.1 10.1-20.4 0-9.7-10.1-9.7-10.1 11-2.6 10.7-10.8 8.8-18.6z"/><path class="i" d="m546.6 159.8c-3.2 0.5-0.5-7.8 0.8-8.6 3-2 41.7-4.8 41.4-0.1-0.1 2-1.1 6-2.8 7.3-1.7 1.3-11.6-2.7-39.4 1.4z"/><path class="i" d="m552.9 157.1c-2.6 0.8-2.3-7.5-1.5-8.5 2-2.3 33.4-10.4 34.3-5.8 0.4 2 0.5 5.9-0.5 7.4-1.1 1.5-10.3-1-32.3 6.9z"/><path class="i" d="m541.2 101.2c-0.2 0-0.5-0.1-0.6-0.3-2.3-2.7-5.2-2.4-5.2-2.4-0.5 0-0.8-0.3-0.9-0.7 0-0.5 0.3-0.9 0.7-0.9 0.2 0 3.8-0.4 6.6 3 0.3 0.4 0.2 0.9-0.1 1.1q-0.2 0.2-0.5 0.2z"/><path class="j" d="m537.3 111c0 0-1.7 6-3.9 9.1 1.9 1.4 4.9 0.4 4.9 0.4z"/><path class="i" d="m538.3 108.6c0.2 1.3-0.5 2.5-1.3 2.6-0.9 0.1-1.7-1-1.9-2.3-0.1-1.4 0.5-2.5 1.4-2.6 0.9-0.1 1.7 0.9 1.8 2.3z"/><path class="i" d="m536.9 106.3l-3.3-0.6c0 0 1.9 2.4 3.3 0.6z"/><path class="h" d="m601.4 638.4h-16.8l1.4-38.8h16.7z"/><path class="i" d="m583.3 636.4h18.8c0.7 0 1.3 0.5 1.4 1.2l2.1 14.9c0.2 1.5-1.1 3-2.7 2.9-6.5-0.1-9.7-0.5-18-0.5-5.1 0-12.5 0.6-19.5 0.6-6.9 0-7.4-7-4.5-7.6 13.1-2.8 15.2-6.7 19.6-10.4 0.8-0.7 1.8-1.1 2.8-1.1z"/><g style="opacity:.2"><path  d="m602.7 599.6h-16.7l-0.7 20h16.7z"/></g><path class="h" d="m534.7 179.1c-10.3-4.1-20.2-8.5-30.1-13.5-9.8-5.1-19.5-10.4-28.8-17.6-2.3-1.8-4.6-3.8-6.8-6.1-0.6-0.6-1.1-1.2-1.7-1.9-0.5-0.7-1-1.1-1.7-2.2-1.4-2-2.4-4.6-2.7-7.2-0.3-2.7 0.2-5.2 1-7.3 0.7-2 1.7-3.7 2.8-5.2 2.1-2.9 4.4-5.1 6.8-7 4.7-3.9 9.6-6.7 14.6-9.4q3.7-1.9 7.5-3.6c2.6-1.1 5.1-2.1 7.9-3l3.5 7.7c-8.7 5.5-17.8 11.5-24.4 18.3-1.6 1.7-3 3.4-3.9 5-1 1.5-0.9 2.7-0.8 2.6 0.1 0 0.1 0 0.3 0.2l0.8 0.9c0.3 0.3 0.7 0.7 1.1 1.1 1.6 1.4 3.4 2.9 5.4 4.3 4 2.8 8.3 5.5 12.9 7.9q6.7 3.8 13.8 7.2c9.5 4.5 19.2 8.9 28.8 12.8z"/><path class="h" d="m511.9 97.3l2.8-6-12.6-4.4c0 0-3.9 11.8 0.8 17.3 3.9-0.7 7.4-3.2 9-6.9z"/><path class="h" d="m514.7 78.3l-10.1-2.9-2.5 11.5 12.6 4.4z"/><path class="h" d="m644.7 91.9l1.5-14.1-13 3.1c0 0-0.2 13.2 6.7 15.2z"/><path class="h" d="m639.9 68l-8.4 4 1.7 8.9 13-3.1z"/><path class="h" d="m583.1 99.5c0.6 16.6 1.2 23.6-6.3 32.9-11.3 14-31.8 11.1-37.4-5-5-14.4-5.2-39.2 10.4-47.3 15.2-8.1 32.7 2.8 33.3 19.4z"/><path class="i" d="m575.8 132.4c16.4-7 27.1-21.9 22.6-45.1-4.4-22.3-19.4-24.5-25.6-19.9-6.2 4.7-21.6-2.2-30.9 5.6-16.1 13.5-0.9 28.1 7 36.7 4.7 9.7 10.9 29.6 26.9 22.7z"/><path class="a" d="m569.1 83.3c5.5 7.9 16 10.2 23.5 5 7.6-5.2 9.2-15.9 3.7-23.8-5.5-8-16.1-10.3-23.6-5.1-7.5 5.2-9.1 15.9-3.6 23.9z"/><path class="i" d="m573.3 69c-2.3-13.4 10.3-23.7 27.3-18.7 16.9 5 8 20 4.5 32-3.5 12 5.6 23.4 9.4 14.3 3.9-9.2-2.6-12-2.6-12 0 0 18 4.7 1.3 25-16.7 20.3-31.8-2.1-27.7-15.4 3.3-10.6-10-12.5-12.2-25.2z"/><path class="i" d="m556.4 74.1c-7.8-4.1-20.9-7.3-28.3 5.2-3.6 5.9-2.2 14-2.2 14l22.8 1.5z"/><path class="i" d="m523.2 89.4q0 0 0 0c-0.3-0.1-0.5-0.3-0.5-0.6 0-0.3 0.6-8.4 5.5-13.4 11.7-12.2 25.5-2.1 29.4 1.3 0.2 0.2 0.2 0.5 0 0.7-0.1 0.2-0.5 0.2-0.7 0.1-3.7-3.3-16.9-13-28-1.4-4.6 4.8-5.2 12.7-5.2 12.8 0 0.3-0.2 0.5-0.5 0.5z"/><path class="h" d="m551.7 109.1c0 3.2-1.5 6.4-3.3 8.5-2.8 3.3-5.9 1.7-6.7-1.9-0.6-3.2 0-8.8 3.5-10.8 3.5-1.9 6.5 0.5 6.5 4.2z"/><path class="i" d="m548.1 261.2c0 0 1.1 116.3 11.2 181.1 8.1 52.4 23.2 173.4 23.2 173.4h22.8c0 0 2.3-116.8-1.9-168.6-10.4-131 16.6-155.5-5.2-185.9z"/><path class="k" d="m548.1 261.2c0 0 1.1 116.3 11.2 181.1 8.1 52.4 23.2 173.4 23.2 173.4h22.8c0 0 2.3-116.8-1.9-168.6-10.4-131 16.6-155.5-5.2-185.9z"/><path class="l" d="m560.1 314c8 35.1 1.6 90.4-2.7 114.7-4.7-36.9-7-84.8-8.2-119.9 4.2-6.8 8.1-7.2 10.9 5.2z"/><path class="a" d="m579.4 616.2h29.1l1.5-10.2-30.8-1.1z"/><path class="a" d="m587.7 163.1c2.7-5.5 17.4-8.9 25.5-8.9l6 26.8c0 0-16 23.7-22.7 21.2-7.9-3-14.7-27.5-8.8-39.1z"/><path class="m" d="m587.7 163.1c2.7-5.5 17.4-8.9 25.5-8.9l6 26.8c0 0-16 23.7-22.7 21.2-7.9-3-14.7-27.5-8.8-39.1z"/><path fill-rule="evenodd" class="a" d="m570.7 609.7c-1.9 2-5.4 5.4-7.8 5.1q-1.1-0.1-1.8-1.1-0.3-0.6 0-1.3c1-2.1 8.4-3.2 9.2-3.4 0.2 0 0.3 0.1 0.4 0.2q0.1 0.2 0 0.4 0 0.1 0 0.1zm-8.9 3.1q-0.1 0.2 0 0.5 0.4 0.7 1.1 0.7c1.4 0.2 3.7-1.3 6.4-4-3 0.5-6.8 1.6-7.5 2.7q0 0 0 0.1z"/><path fill-rule="evenodd" class="a" d="m570.4 609.8c-2.1 0.5-7.4-0.1-8.3-1.9-0.2-0.4-0.3-1 0.6-1.7q0.9-0.9 2.1-0.8c2.8 0.2 5.7 3.6 5.9 3.8q0.1 0.1 0 0.3 0 0.1 0 0.1-0.1 0.2-0.3 0.2zm-7.6-2.2c0.5 1 4.4 1.7 6.8 1.5-1-0.9-3-2.8-4.8-2.9q-0.9-0.1-1.6 0.5-0.2 0.3-0.3 0.4c-0.2 0.3-0.1 0.4-0.1 0.5z"/><path class="h" d="m588.2 602.5l-15.4 6.8-6.8-14.2-8.9-18.6-1.1-2.1 15.4-6.9 1.1 2.5 8.7 18z"/><path class="n" d="m581.2 588l-15.2 7.1-8.9-18.6 15.4-6.5z"/><path class="i" d="m530.1 261.2c0 0-48.9 121.7-35.6 179 11.9 51.8 65 149.8 65 149.8l20.5-10.2c0 0-32.8-118.4-36.4-144.1-6.9-50.1 37.6-120.7 37.6-174.5z"/><path class="k" d="m530.1 261.2c0 0-48.9 121.7-35.6 179 11.9 51.8 65 149.8 65 149.8l20.5-10.2c0 0-32.8-118.4-36.4-144.1-6.9-50.1 37.6-120.7 37.6-174.5z"/><path class="i" d="m570.1 607.2l15.2-11.1c0.6-0.4 1.3-0.3 1.8 0.2l10.5 10.7c1.1 1.2 0.9 3.1-0.4 4-5.4 3.8-8.2 5.4-14.9 10.2-4.1 3-12.3 9.6-18 13.8-5.6 4-10.1-1.3-8.1-3.5 9-10 10.9-16.2 12.3-21.8 0.2-1 0.8-1.9 1.6-2.5z"/><path class="a" d="m558.1 594.4l26.5-12.1-3.4-10.8-28.3 12.9z"/><path class="a" d="m543.1 161.7c-2.2-5.7-21.3-11.9-30.9-14.1l-4.2 31.6c0 0 15.7 22.5 22.5 20.6 8.2-2.2 17.3-25.9 12.6-38.1z"/><path class="m" d="m543.1 161.7c-2.2-5.7-21.3-11.9-30.9-14.1l-4.2 31.6c0 0 15.7 22.5 22.5 20.6 8.2-2.2 17.3-25.9 12.6-38.1z"/><path class="a" d="m522.1 160.1c0 0-7.9 2.8 8 101.1 27 0 54.9 0 68.1 0-1.2-27.6-1.2-44.7 12-101.6 0 0-14.2-3.1-28.9-3.8-11.4-0.5-20.8-0.9-30.8 0-13.3 1.3-28.4 4.3-28.4 4.3z"/><path class="m" d="m522.1 160.1c0 0-7.9 2.8 8 101.1 27 0 54.9 0 68.1 0-1.2-27.6-1.2-44.7 12-101.6 0 0-14.2-3.1-28.9-3.8-11.4-0.5-20.8-0.9-30.8 0-13.3 1.3-28.4 4.3-28.4 4.3z"/><path class="a" d="m599.2 257.3l3.1 6c0.2 0.5-0.4 1-1.1 1h-71.4c-0.6 0-1.1-0.3-1.2-0.7l-0.6-6.1c0-0.4 0.5-0.8 1.2-0.8h68.9c0.5 0 0.9 0.2 1.1 0.6z"/><path class="o" d="m599.2 257.3l3.1 6c0.2 0.5-0.4 1-1.1 1h-71.4c-0.6 0-1.1-0.3-1.2-0.7l-0.6-6.1c0-0.4 0.5-0.8 1.2-0.8h68.9c0.5 0 0.9 0.2 1.1 0.6z"/><path class="i" d="m589.9 265h1.9c0.4 0 0.6-0.2 0.6-0.5l-0.9-7.9c0-0.2-0.3-0.4-0.7-0.4h-1.8c-0.4 0-0.7 0.2-0.6 0.4l0.8 7.9c0.1 0.3 0.4 0.5 0.7 0.5z"/><path class="i" d="m545.2 265h1.9c0.3 0 0.6-0.2 0.6-0.5l-0.9-7.9c0-0.2-0.3-0.4-0.7-0.4h-1.8c-0.4 0-0.7 0.2-0.7 0.4l0.9 7.9c0 0.3 0.3 0.5 0.7 0.5z"/></svg>