<svg width="180" height="42" viewBox="0 0 180 42" fill="none" xmlns="http://www.w3.org/2000/svg">
<g clip-path="url(#clip0_31103_815)">
<path d="M0.000362396 17.478L3.33428 20.8123L4.3011 21.78L6.92315 24.4021L7.28538 24.763L7.97597 25.454L8.77296 24.6566L9.02748 24.4021L15.0569 18.3731V22.7829L16.5444 21.2949V14.7808L15.0569 16.2684L7.97597 23.3492L7.28538 22.6587L5.35392 20.7272L4.38623 19.7595L2.10339 17.478L5.17975 14.4016L6.09358 13.4878H10.6588L12.1468 11.9998H5.47814L3.99055 13.4878L3.07629 14.4016L1.05188 16.4264L0.000362396 17.478Z" fill="#314A6F"/>
<path d="M18.8521 14.5777L21.7526 17.4782L16.5441 22.6863L11.9276 27.3028L11.2323 26.6074L9.94534 25.3213L8.89339 26.3733L10.1807 27.6589L10.8761 28.3547L11.9276 29.4075L15.0565 26.2786L16.5441 24.791L23.8569 17.4782L22.8041 16.4267L22.1083 15.7309L20.781 14.4018L19.9037 13.5262L19.8667 13.488L18.3787 12H14.0815L12.5934 13.488L11.6792 14.4018L8.77265 17.3084V14.4018H7.28506V20.902L13.7848 14.4018L14.6991 13.488H17.7633L18.6775 14.4018L18.8521 14.5777Z" fill="#314A6F"/>
</g>
<g clip-path="url(#clip1_31103_815)">
<path d="M31.8569 24.9544V16.4412H33.061L35.0312 22.595V16.4412H35.8712V24.9544H34.8852L32.7083 18.0708V24.9544H31.8569Z" fill="#314A6F"/>
<path d="M41.1247 24.9544H40.249L41.8787 16.4412H43.253L44.8827 24.9544H43.934L43.6057 23.2396H41.4539L41.1247 24.9544ZM43.4702 22.4248L42.5094 17.5114L41.5729 22.4248H43.4702Z" fill="#314A6F"/>
<path d="M50.5132 17.3046H48.9443V16.4412H53.0272V17.3046H51.4618V24.9544H50.5132V17.3046Z" fill="#314A6F"/>
<path d="M59.233 24.1761C59.566 24.1761 59.8133 24.0707 59.9749 23.8599C60.1365 23.6491 60.2176 23.345 60.2182 22.9477V16.4412H61.106V22.8991C61.106 23.5726 60.9479 24.0996 60.6317 24.4801C60.3154 24.8606 59.8371 25.0511 59.1966 25.0517C58.5641 25.0517 58.0898 24.8592 57.7736 24.474C57.4574 24.0889 57.2993 23.5639 57.2993 22.8991V16.4412H58.2358V22.9477C58.2358 23.7672 58.5682 24.1766 59.233 24.1761Z" fill="#314A6F"/>
<path d="M69.0297 16.9276C69.3338 17.2525 69.4858 17.739 69.4858 18.3871V19.082C69.4858 19.5528 69.4006 19.9339 69.2304 20.2252C69.0515 20.5241 68.7638 20.7421 68.4277 20.8333C68.7692 20.9235 69.0618 21.144 69.2425 21.4475C69.4128 21.7434 69.4979 22.1306 69.4979 22.6089V23.9302C69.496 24.1273 69.5062 24.3243 69.5283 24.5201C69.546 24.6726 69.5935 24.8202 69.6682 24.9544H68.7074C68.6505 24.8241 68.6097 24.6872 68.5858 24.547C68.5572 24.3395 68.545 24.1301 68.5493 23.9207V22.5829C68.5493 22.1196 68.4459 21.7932 68.2392 21.6038C68.0324 21.4145 67.7223 21.3192 67.3088 21.318H66.6399V24.9544H65.6904V16.4412H67.5877C68.245 16.4412 68.7257 16.6033 69.0297 16.9276ZM68.2479 20.1992C68.4465 20.0289 68.5458 19.7248 68.5458 19.287V18.4722C68.5458 18.083 68.4688 17.7911 68.3148 17.5965C68.1607 17.4019 67.9094 17.3046 67.5607 17.3046H66.6399V20.4554H67.3453C67.7513 20.4554 68.0533 20.37 68.2514 20.1992H68.2479Z" fill="#314A6F"/>
<path d="M77.157 21.0634H75.08V24.0917H77.6339V24.9552H74.1313V16.4419H77.6339V17.3054H75.08V20.2121H77.157V21.0634Z" fill="#314A6F"/>
<path d="M91.1432 16.9944C91.4635 17.3639 91.6236 17.8851 91.6236 18.558V22.8512C91.6236 23.5166 91.4635 24.0335 91.1432 24.4018C90.823 24.7701 90.3385 24.9546 89.6899 24.9552H87.6919V16.4419H89.6899C90.3368 16.4413 90.8212 16.6255 91.1432 16.9944ZM90.6837 22.8876V18.5094C90.6837 17.7067 90.3432 17.3054 89.6621 17.3054H88.6405V24.0917H89.6743C90.3478 24.0911 90.6843 23.6897 90.6837 22.8876Z" fill="#314A6F"/>
<path d="M97.1054 24.9544H96.1567V16.4412H97.1054V24.9544Z" fill="#314A6F"/>
<path d="M102.359 24.9544H101.481L103.111 16.4412H104.485L106.115 24.9544H105.166L104.838 23.2396H102.685L102.359 24.9544ZM104.705 22.4248L103.744 17.5114L102.807 22.4248H104.705Z" fill="#314A6F"/>
<path d="M112.733 24.9423L111.322 18.1664V24.9527H110.495V16.4395H111.818L113.217 23.2379L114.567 16.4395H115.892V24.9527H114.992V18.11L113.642 24.9423H112.733Z" fill="#314A6F"/>
<path d="M126.998 24.9544H126.05V16.4412H126.998V24.9544Z" fill="#314A6F"/>
<path d="M131.607 24.9544V16.4412H132.812L134.781 22.595V16.4412H135.62V24.9544H134.635L132.457 18.0708V24.9544H131.607Z" fill="#314A6F"/>
<path d="M143.52 16.9276C143.84 17.3086 144 17.8316 144.001 18.4964V19.2626H143.1V18.4478C143.1 17.6295 142.768 17.22 142.103 17.2194C141.771 17.2194 141.522 17.3269 141.355 17.5417C141.188 17.7566 141.105 18.0586 141.105 18.4478V22.9477C141.105 23.3368 141.189 23.6388 141.355 23.8537C141.521 24.0686 141.77 24.176 142.103 24.176C142.768 24.176 143.101 23.7665 143.1 22.9477V21.8453H144.001V22.9033C144.001 23.5688 143.84 24.0917 143.52 24.4722C143.199 24.8527 142.718 25.0432 142.078 25.0438C141.446 25.0438 140.97 24.8533 140.649 24.4722C140.329 24.0911 140.169 23.5682 140.169 22.9033V18.4964C140.169 17.8316 140.329 17.3086 140.649 16.9276C140.97 16.5465 141.446 16.356 142.078 16.356C142.719 16.356 143.2 16.5465 143.52 16.9276Z" fill="#314A6F"/>
</g>
<defs>
<clipPath id="clip0_31103_815">
<rect width="23.8569" height="17.4075" fill="white" transform="matrix(-1 0 0 1 23.8569 12)"/>
</clipPath>
<clipPath id="clip1_31103_815">
<rect width="112.143" height="8.69568" fill="white" transform="translate(31.8569 16.356)"/>
</clipPath>
</defs>
</svg>
