<svg width="25" height="24" viewBox="0 0 25 24" fill="none" xmlns="http://www.w3.org/2000/svg">
<path d="M12.1328 10.125L12.1328 20.25" stroke="#18191C" stroke-width="2" stroke-linecap="round" stroke-linejoin="round"/>
<path d="M12.1328 3.75L12.1328 6.375" stroke="#18191C" stroke-width="2" stroke-linecap="round" stroke-linejoin="round"/>
<path d="M12.1328 10.125C13.1683 10.125 14.0078 9.28553 14.0078 8.25C14.0078 7.21447 13.1683 6.375 12.1328 6.375C11.0973 6.375 10.2578 7.21447 10.2578 8.25C10.2578 9.28553 11.0973 10.125 12.1328 10.125Z" stroke="#18191C" stroke-width="2" stroke-linecap="round" stroke-linejoin="round"/>
<path d="M18.8828 17.625L18.8829 20.25" stroke="#18191C" stroke-width="2" stroke-linecap="round" stroke-linejoin="round"/>
<path d="M18.8829 3.75L18.8828 13.875" stroke="#18191C" stroke-width="2" stroke-linecap="round" stroke-linejoin="round"/>
<path d="M18.8828 17.625C19.9183 17.625 20.7578 16.7855 20.7578 15.75C20.7578 14.7145 19.9183 13.875 18.8828 13.875C17.8473 13.875 17.0078 14.7145 17.0078 15.75C17.0078 16.7855 17.8473 17.625 18.8828 17.625Z" stroke="#18191C" stroke-width="2" stroke-linecap="round" stroke-linejoin="round"/>
<path d="M5.38289 14.625L5.38281 20.25" stroke="#18191C" stroke-width="2" stroke-linecap="round" stroke-linejoin="round"/>
<path d="M5.38281 3.75L5.38289 10.875" stroke="#18191C" stroke-width="2" stroke-linecap="round" stroke-linejoin="round"/>
<path d="M5.38281 14.625C6.41835 14.625 7.25781 13.7855 7.25781 12.75C7.25781 11.7145 6.41835 10.875 5.38281 10.875C4.34728 10.875 3.50781 11.7145 3.50781 12.75C3.50781 13.7855 4.34728 14.625 5.38281 14.625Z" stroke="#18191C" stroke-width="2" stroke-linecap="round" stroke-linejoin="round"/>
</svg>
