<svg width="40" height="40" viewBox="0 0 40 40" fill="none" xmlns="http://www.w3.org/2000/svg">
<path fill-rule="evenodd" clip-rule="evenodd" d="M10 12.6625C10 12.5102 10.0254 12.3594 10.0747 12.2187C10.124 12.078 10.1963 11.9501 10.2874 11.8425C10.3786 11.7348 10.4868 11.6493 10.6058 11.5911C10.7249 11.5328 10.8525 11.5028 10.9814 11.5028C11.1103 11.5028 11.2379 11.5328 11.357 11.5911C11.476 11.6493 11.5842 11.7348 11.6754 11.8425C11.7665 11.9501 11.8388 12.078 11.8881 12.2187C11.9374 12.3594 11.9628 12.5102 11.9628 12.6625V27.6787H29.0178C29.2783 27.6787 29.5281 27.801 29.7123 28.0187C29.8965 28.2363 30 28.5315 30 28.8394C30 29.1472 29.8965 29.4424 29.7123 29.6601C29.5281 29.8777 29.2783 30 29.0178 30H10V12.6625ZM26.5846 11.372L26.0964 10.6258C26.0596 10.5772 26.0338 10.5183 26.0216 10.4548C26.0094 10.3912 26.011 10.325 26.0264 10.2623C26.1126 9.9604 26.4056 9.99694 26.6155 10.0066C27.2096 10.0566 28.523 10.1681 28.829 10.1816C28.8794 10.1797 28.9294 10.1918 28.9752 10.2167C29.0209 10.2416 29.0612 10.2787 29.0927 10.3252C29.1243 10.3716 29.1463 10.426 29.157 10.4842C29.1677 10.5424 29.1669 10.6027 29.1545 10.6604C29.0926 11.0258 28.8957 12.6894 28.7932 13.3529C28.7574 13.5837 28.6988 13.8856 28.4498 13.9068C28.395 13.909 28.3406 13.8948 28.2916 13.8656C28.2427 13.8363 28.2008 13.793 28.1698 13.7395L27.6816 12.9933L27.4814 12.6932L25.0368 14.8838V14.9338C25.0368 15.3959 24.8815 15.8391 24.6049 16.1658C24.3284 16.4926 23.9533 16.6762 23.5623 16.6762C23.1712 16.6762 22.7961 16.4926 22.5196 16.1658C22.2431 15.8391 22.0877 15.3959 22.0877 14.9338C22.0877 14.8953 22.0877 14.8568 22.0877 14.8184L20.3804 13.3587C20.116 13.5748 19.799 13.6828 19.4778 13.6661C19.1567 13.6494 18.8489 13.509 18.6015 13.2664L16.9414 14.6626C16.9768 14.8091 16.9959 14.9603 16.9984 15.1126C16.9968 15.485 16.8936 15.8469 16.7041 16.1445C16.5146 16.4421 16.2489 16.6596 15.9465 16.7645C15.6441 16.8695 15.3211 16.8564 15.0255 16.7272C14.7299 16.598 14.4774 16.3596 14.3056 16.0473C14.1338 15.7351 14.0518 15.3657 14.0718 14.994C14.0918 14.6223 14.2127 14.2682 14.4166 13.9841C14.6205 13.7001 14.8965 13.5014 15.2036 13.4175C15.5107 13.3336 15.8325 13.3689 16.1212 13.5183L18.0742 11.8759C18.1087 11.4399 18.2808 11.0352 18.5563 10.7424C18.8319 10.4496 19.1906 10.2901 19.5612 10.2957C19.9317 10.3012 20.2869 10.4715 20.556 10.7725C20.8251 11.0735 20.9885 11.4832 21.0135 11.9201C21.0135 11.9586 21.0135 11.997 21.0135 12.0336L22.7241 13.4952C22.977 13.2875 23.2786 13.1786 23.5865 13.1838C23.8945 13.189 24.1933 13.308 24.4411 13.5241L26.679 11.5143L26.5846 11.372ZM26.57 15.8684H28.6028C28.659 15.8684 28.713 15.8947 28.7529 15.9415C28.7929 15.9884 28.8155 16.052 28.816 16.1184V25.4536C28.8155 25.5202 28.7929 25.584 28.753 25.6312C28.7132 25.6783 28.6592 25.705 28.6028 25.7055H26.57C26.542 25.7055 26.5142 25.699 26.4884 25.6863C26.4625 25.6737 26.439 25.6551 26.4192 25.6317C26.3994 25.6083 26.3837 25.5806 26.373 25.55C26.3623 25.5194 26.3568 25.4867 26.3568 25.4536V16.1184C26.3572 16.052 26.3798 15.9884 26.4198 15.9415C26.4597 15.8947 26.5137 15.8684 26.57 15.8684ZM22.5467 19.0667H24.5795C24.6075 19.0667 24.6352 19.0732 24.6611 19.0859C24.6869 19.0985 24.7104 19.1171 24.7302 19.1405C24.75 19.1639 24.7657 19.1916 24.7765 19.2222C24.7872 19.2528 24.7927 19.2855 24.7927 19.3186V25.4536C24.7923 25.5202 24.7697 25.584 24.7298 25.6312C24.6899 25.6783 24.6359 25.705 24.5795 25.7055H22.5467C22.5187 25.7055 22.491 25.699 22.4651 25.6863C22.4392 25.6737 22.4157 25.6551 22.3959 25.6317C22.3761 25.6083 22.3604 25.5806 22.3497 25.55C22.339 25.5194 22.3335 25.4867 22.3335 25.4536V19.3186C22.3335 19.2518 22.3559 19.1877 22.3959 19.1405C22.4359 19.0932 22.4901 19.0667 22.5467 19.0667ZM18.5218 15.8684H20.5562C20.6123 15.8684 20.6661 15.8948 20.7058 15.9417C20.7455 15.9885 20.7678 16.0521 20.7678 16.1184V25.4536C20.7674 25.5199 20.745 25.5834 20.7055 25.6305C20.6659 25.6776 20.6123 25.7045 20.5562 25.7055H18.5218C18.4654 25.705 18.4114 25.6783 18.3715 25.6312C18.3316 25.584 18.309 25.5202 18.3086 25.4536V16.1184C18.309 16.052 18.3317 15.9884 18.3716 15.9415C18.4115 15.8947 18.4655 15.8684 18.5218 15.8684ZM14.4985 19.5821H16.5313C16.5593 19.5821 16.587 19.5886 16.6129 19.6013C16.6388 19.6139 16.6623 19.6325 16.6821 19.6559C16.7019 19.6793 16.7176 19.7071 16.7283 19.7376C16.739 19.7682 16.7445 19.801 16.7445 19.834V25.4536C16.7441 25.5202 16.7215 25.584 16.6816 25.6312C16.6417 25.6783 16.5877 25.705 16.5313 25.7055H14.4985C14.4705 25.7055 14.4428 25.699 14.4169 25.6863C14.3911 25.6737 14.3676 25.6551 14.3478 25.6317C14.328 25.6083 14.3123 25.5806 14.3015 25.55C14.2908 25.5194 14.2853 25.4867 14.2853 25.4536V19.834C14.2853 19.7672 14.3078 19.7031 14.3478 19.6559C14.3877 19.6086 14.442 19.5821 14.4985 19.5821Z" fill="#535862"/>
</svg>
